<svg width="30" height="29" viewBox="0 0 30 29" fill="none" xmlns="http://www.w3.org/2000/svg">
<path d="M16.4403 4.28818C17.2401 3.52641 17.271 2.26045 16.5092 1.46059C15.7475 0.660734 14.4815 0.629857 13.6816 1.39163L16.4403 4.28818ZM1.08163 13.3917C0.281766 14.1534 0.25089 15.4194 1.01266 16.2192C1.77443 17.0191 3.04039 17.05 3.84025 16.2882L1.08163 13.3917ZM3.84025 13.3916C3.04039 12.6299 1.77443 12.6607 1.01266 13.4606C0.25089 14.2605 0.281766 15.5264 1.08163 16.2882L3.84025 13.3916ZM13.6816 28.2882C14.4815 29.05 15.7475 29.0191 16.5092 28.2192C17.271 27.4194 17.2401 26.1534 16.4403 25.3916L13.6816 28.2882ZM2.46094 12.8398C1.35637 12.8398 0.460938 13.7352 0.460938 14.8398C0.460938 15.9444 1.35637 16.8398 2.46094 16.8398V12.8398ZM27.4007 16.8398C28.5053 16.8398 29.4007 15.9444 29.4007 14.8398C29.4007 13.7352 28.5053 12.8398 27.4007 12.8398V16.8398ZM13.6816 1.39163L1.08163 13.3917L3.84025 16.2882L16.4403 4.28818L13.6816 1.39163ZM1.08163 16.2882L13.6816 28.2882L16.4403 25.3916L3.84025 13.3916L1.08163 16.2882ZM2.46094 16.8398H27.4007V12.8398H2.46094V16.8398Z" fill="white"/>
</svg>
