<svg width="25" height="21" viewBox="0 0 25 21" fill="none" xmlns="http://www.w3.org/2000/svg">
<path fill-rule="evenodd" clip-rule="evenodd" d="M5.3462 18.9551C4.30591 19.1345 3.23841 18.8633 2.40979 18.2093C1.58117 17.5553 1.06949 16.58 1.00229 15.5265V4.20511C0.953892 3.01712 1.67648 1.93324 2.7917 1.52099C6.06726 0.318925 9.74472 1.23954 12.0676 3.84312V20C10.5105 18.6911 7.82008 18.6121 5.3462 18.9551Z" stroke="white" stroke-width="2" stroke-linecap="round" stroke-linejoin="round"/>
<path fill-rule="evenodd" clip-rule="evenodd" d="M18.7891 18.9551C19.8294 19.1345 20.8969 18.8633 21.7255 18.2093C22.5541 17.5553 23.0658 16.58 23.133 15.5265V4.20511C23.1814 3.01712 22.4588 1.93324 21.3436 1.52099C18.0681 0.318925 14.3906 1.23954 12.0677 3.84312V20C13.6248 18.6911 16.3152 18.6121 18.7891 18.9551Z" stroke="white" stroke-width="2" stroke-linecap="round" stroke-linejoin="round"/>
<path d="M8.11585 9.93466C8.66814 9.93466 9.11585 9.48695 9.11585 8.93466C9.11585 8.38238 8.66814 7.93466 8.11585 7.93466V9.93466ZM4.95435 7.93466C4.40206 7.93466 3.95435 8.38238 3.95435 8.93466C3.95435 9.48695 4.40206 9.93466 4.95435 9.93466V7.93466ZM8.11585 13.0962C8.66814 13.0962 9.11585 12.6485 9.11585 12.0962C9.11585 11.5439 8.66814 11.0962 8.11585 11.0962V13.0962ZM4.95435 11.0962C4.40206 11.0962 3.95435 11.5439 3.95435 12.0962C3.95435 12.6485 4.40206 13.0962 4.95435 13.0962V11.0962ZM19.1812 9.93466C19.7335 9.93466 20.1812 9.48695 20.1812 8.93466C20.1812 8.38238 19.7335 7.93466 19.1812 7.93466V9.93466ZM16.0197 7.93466C15.4674 7.93466 15.0197 8.38238 15.0197 8.93466C15.0197 9.48695 15.4674 9.93466 16.0197 9.93466V7.93466ZM19.1812 13.0962C19.7335 13.0962 20.1812 12.6485 20.1812 12.0962C20.1812 11.5439 19.7335 11.0962 19.1812 11.0962V13.0962ZM16.0197 11.0962C15.4674 11.0962 15.0197 11.5439 15.0197 12.0962C15.0197 12.6485 15.4674 13.0962 16.0197 13.0962V11.0962ZM8.11585 7.93466H4.95435V9.93466H8.11585V7.93466ZM8.11585 11.0962H4.95435V13.0962H8.11585V11.0962ZM19.1812 7.93466H16.0197V9.93466H19.1812V7.93466ZM19.1812 11.0962H16.0197V13.0962H19.1812V11.0962Z" fill="white"/>
</svg>
