<svg width="24" height="25" viewBox="0 0 24 25" fill="none" xmlns="http://www.w3.org/2000/svg">
<path fill-rule="evenodd" clip-rule="evenodd" d="M7.60559 1.00001H16.0711C16.159 1.00001 16.2464 1.00563 16.3333 1.01688C19.7792 1.25786 22.455 4.11757 22.4666 7.57187V17.4297C22.454 21.0669 19.4983 24.0068 15.8611 24H7.60559C3.96778 24.0068 1.01184 21.0659 1 17.4281V7.57187C1.01184 3.93407 3.96778 0.993224 7.60559 1.00001Z" stroke="white" stroke-width="2" stroke-linecap="round" stroke-linejoin="round"/>
<path fill-rule="evenodd" clip-rule="evenodd" d="M8.22828 5.79786L5.94208 7.63786C5.72124 7.84831 5.59703 8.14056 5.59877 8.44561C5.60051 8.75066 5.72805 9.04148 5.95128 9.24939L7.42788 11.0265L13.6011 18.4494C13.704 18.5689 13.8418 18.6531 13.9951 18.6901L17.0618 19.3908C17.4673 19.4138 17.8203 19.1166 17.8668 18.7131L17.7242 15.7293C17.7137 15.5761 17.6521 15.4309 17.5494 15.3168L11.5188 8.06413L9.89347 6.1122C9.50218 5.59423 8.78147 5.45819 8.22828 5.79786Z" stroke="white" stroke-width="2" stroke-linecap="round" stroke-linejoin="round"/>
<path d="M22.4663 8.63317C23.0186 8.63317 23.4663 8.18546 23.4663 7.63317C23.4663 7.08089 23.0186 6.63317 22.4663 6.63317V8.63317ZM16.333 7.63317H15.333C15.333 8.18546 15.7807 8.63317 16.333 8.63317V7.63317ZM17.333 1.01685C17.333 0.464561 16.8853 0.0168457 16.333 0.0168457C15.7807 0.0168457 15.333 0.464561 15.333 1.01685H17.333ZM12.5036 8.24182C12.5984 7.69773 12.2341 7.17983 11.69 7.08504C11.1459 6.99026 10.628 7.3545 10.5333 7.89859L12.5036 8.24182ZM7.57524 10.0328C7.02901 9.95125 6.52006 10.3279 6.43846 10.8741C6.35687 11.4204 6.73352 11.9293 7.27975 12.0109L7.57524 10.0328ZM22.4663 6.63317H16.333V8.63317H22.4663V6.63317ZM17.333 7.63317V1.01685H15.333V7.63317H17.333ZM10.5333 7.89859C10.29 9.29498 8.9771 10.2423 7.57524 10.0328L7.27975 12.0109C9.75542 12.3807 12.074 10.7078 12.5036 8.24182L10.5333 7.89859Z" fill="white"/>
</svg>
