<svg width="20" height="20" viewBox="0 0 20 20" fill="none" xmlns="http://www.w3.org/2000/svg">
<path d="M19 19H6.14286C3.30254 19 1 16.6975 1 13.8571V1" stroke="white" stroke-width="2" stroke-linecap="round" stroke-linejoin="round"/>
<path d="M14.0101 3.85716C13.4578 3.85716 13.0101 4.30487 13.0101 4.85716C13.0101 5.40944 13.4578 5.85716 14.0101 5.85716V3.85716ZM19 5.85716C19.5523 5.85716 20 5.40944 20 4.85716C20 4.30487 19.5523 3.85716 19 3.85716V5.85716ZM19.9998 4.85712C19.9998 4.30483 19.552 3.85712 18.9998 3.85712C18.4475 3.85712 17.9998 4.30483 17.9998 4.85712H19.9998ZM17.9998 9.49469C17.9998 10.047 18.4475 10.4947 18.9998 10.4947C19.552 10.4947 19.9998 10.047 19.9998 9.49469H17.9998ZM19.7686 5.49676C20.1219 5.07222 20.0641 4.4417 19.6396 4.08844C19.2151 3.73518 18.5845 3.79296 18.2313 4.21749L19.7686 5.49676ZM13.8571 11.0376L14.5288 11.7783C14.5635 11.7469 14.5959 11.7131 14.6258 11.6772L13.8571 11.0376ZM11.8398 11.116L11.2202 11.901L11.2276 11.9067L11.8398 11.116ZM10.4911 10.0514L11.1107 9.26645L11.1056 9.26253L10.4911 10.0514ZM8.32853 10.2867L7.55871 9.64843C7.54885 9.66032 7.53927 9.67244 7.52997 9.68478L8.32853 10.2867ZM8.16396 10.4821L8.87789 11.1823C8.88298 11.1771 8.88801 11.1719 8.89299 11.1666L8.16396 10.4821ZM3.97088 13.3292C3.58416 13.7235 3.59031 14.3566 3.9846 14.7433C4.37889 15.1301 5.01203 15.1239 5.39875 14.7296L3.97088 13.3292ZM14.0101 5.85716H19V3.85716H14.0101V5.85716ZM17.9998 4.85712V9.49469H19.9998V4.85712H17.9998ZM18.2313 4.21749L13.0884 10.3979L14.6258 11.6772L19.7686 5.49676L18.2313 4.21749ZM13.1853 10.2968C12.9802 10.4828 12.671 10.4949 12.452 10.3253L11.2276 11.9067C12.2136 12.6701 13.6051 12.616 14.5288 11.7783L13.1853 10.2968ZM12.4594 10.331L11.1107 9.26647L9.87153 10.8363L11.2202 11.9009L12.4594 10.331ZM11.1056 9.26253C10.0133 8.41158 8.4425 8.58248 7.55871 9.64843L9.09835 10.925C9.29225 10.6911 9.63689 10.6536 9.87655 10.8403L11.1056 9.26253ZM7.52997 9.68478C7.50034 9.72408 7.46861 9.76176 7.43492 9.79764L8.89299 11.1666C8.97597 11.0782 9.05412 10.9854 9.12709 10.8886L7.52997 9.68478ZM7.45003 9.78191L3.97088 13.3292L5.39875 14.7296L8.87789 11.1823L7.45003 9.78191Z" fill="white"/>
</svg>
