<svg width="27" height="24" viewBox="0 0 27 24" fill="none" xmlns="http://www.w3.org/2000/svg">
<path fill-rule="evenodd" clip-rule="evenodd" d="M18.3074 10.8825C20.8757 10.8277 23.0053 12.7292 23.0645 15.1299C23.065 15.5422 22.9986 15.9522 22.8676 16.3459C24.4545 16.5993 25.6238 17.8727 25.6513 19.3774C25.6092 21.1226 24.062 22.5056 22.1951 22.4671H10.0992C8.23219 22.5056 6.68505 21.1226 6.64294 19.3774C6.6671 17.9408 7.73794 16.7056 9.23633 16.3858C9.23633 16.3541 9.23633 16.3219 9.23633 16.2892C9.27844 14.544 10.8256 13.1609 12.6925 13.1994C13.1256 13.1988 13.5552 13.2716 13.9605 13.4141C14.76 11.8522 16.4553 10.8649 18.3074 10.8825Z" stroke="white" stroke-width="2" stroke-linecap="round" stroke-linejoin="round"/>
<path d="M17.012 23.4671C17.5643 23.4671 18.012 23.0194 18.012 22.4671C18.012 21.9148 17.5643 21.4671 17.012 21.4671V23.4671ZM10.0996 21.4671C9.54729 21.4671 9.09958 21.9148 9.09958 22.4671C9.09958 23.0194 9.54729 23.4671 10.0996 23.4671V21.4671ZM15.2831 21.4671C14.7308 21.4671 14.2831 21.9148 14.2831 22.4671C14.2831 23.0194 14.7308 23.4671 15.2831 23.4671V21.4671ZM22.1955 23.4671C22.7478 23.4671 23.1955 23.0194 23.1955 22.4671C23.1955 21.9148 22.7478 21.4671 22.1955 21.4671V23.4671ZM6.28832 1.31416C6.00111 0.842429 5.38586 0.692846 4.91413 0.980056C4.4424 1.26727 4.29282 1.88251 4.58003 2.35424L6.28832 1.31416ZM5.80209 4.36142C6.0893 4.83314 6.70454 4.98273 7.17627 4.69552C7.648 4.40831 7.79758 3.79307 7.51037 3.32134L5.80209 4.36142ZM13.6591 1.25753C13.8014 0.72387 13.484 0.175957 12.9504 0.033729C12.4167 -0.108499 11.8688 0.208816 11.7266 0.742473L13.6591 1.25753ZM11.1361 2.95819C10.9938 3.49185 11.3112 4.03976 11.8448 4.18199C12.3785 4.32422 12.9264 4.0069 13.0686 3.47324L11.1361 2.95819ZM1.30574 6.40533C0.772331 6.26216 0.22386 6.57851 0.0806926 7.11192C-0.062475 7.64532 0.253875 8.1938 0.787281 8.33696L1.30574 6.40533ZM3.10673 8.95951C3.64014 9.10268 4.18861 8.78633 4.33177 8.25292C4.47494 7.71952 4.15859 7.17105 3.62519 7.02788L3.10673 8.95951ZM13.339 8.20018C13.7587 8.55913 14.39 8.50986 14.7489 8.09013C15.1079 7.67039 15.0586 7.03915 14.6389 6.6802L13.339 8.20018ZM8.4905 6.84371L8.02723 5.95749C8.01473 5.96403 8.00237 5.97083 7.99016 5.97788L8.4905 6.84371ZM5.32352 11.9601C5.45285 12.4971 5.99296 12.8275 6.52989 12.6981C7.06682 12.5688 7.39724 12.0287 7.26791 11.4918L5.32352 11.9601ZM17.012 21.4671H10.0996V23.4671H17.012V21.4671ZM15.2831 23.4671H22.1955V21.4671H15.2831V23.4671ZM4.58003 2.35424L5.80209 4.36142L7.51037 3.32134L6.28832 1.31416L4.58003 2.35424ZM11.7266 0.742473L11.1361 2.95819L13.0686 3.47324L13.6591 1.25753L11.7266 0.742473ZM0.787281 8.33696L3.10673 8.95951L3.62519 7.02788L1.30574 6.40533L0.787281 8.33696ZM14.6389 6.6802C12.8188 5.12372 10.1611 4.84204 8.02723 5.95749L8.95377 7.72993C10.3775 6.9857 12.1517 7.18481 13.339 8.20018L14.6389 6.6802ZM7.99016 5.97788C5.86103 7.20825 4.75586 9.60339 5.32352 11.9601L7.26791 11.4918C6.92103 10.0517 7.57858 8.52565 8.99084 7.70954L7.99016 5.97788Z" fill="white"/>
</svg>
