<svg width="28" height="20" viewBox="0 0 28 20" fill="none" xmlns="http://www.w3.org/2000/svg">
<path d="M9.03308 14.6998C9.03308 15.2521 9.48079 15.6998 10.0331 15.6998C10.5854 15.6998 11.0331 15.2521 11.0331 14.6998H9.03308ZM11.0331 12.5488C11.0331 11.9965 10.5854 11.5488 10.0331 11.5488C9.48079 11.5488 9.03308 11.9965 9.03308 12.5488H11.0331ZM9.03093 6.16432C8.52601 6.3881 8.2981 6.97882 8.52187 7.48374C8.74565 7.98866 9.33637 8.21657 9.84129 7.99279L9.03093 6.16432ZM18.2813 7.99279C18.7863 8.21657 19.377 7.98866 19.6008 7.48374C19.8245 6.97882 19.5966 6.3881 19.0917 6.16432L18.2813 7.99279ZM9.84076 7.99276C10.3457 7.76895 10.5735 7.17822 10.3497 6.67331C10.1259 6.1684 9.53521 5.94052 9.0303 6.16433L9.84076 7.99276ZM5.51472 9.87574L4.78424 9.19281L4.78415 9.1929L5.51472 9.87574ZM2.89567 14.0625L3.82809 14.4239L3.82832 14.4233L2.89567 14.0625ZM1.97546 18.9999L0.975464 19.0001C0.975558 19.5523 1.42325 19.9999 1.97546 19.9999V18.9999ZM26.146 18.9999V19.9999C26.6982 19.9999 27.1459 19.5523 27.146 19.0001L26.146 18.9999ZM25.2258 14.0625L24.2932 14.4233L24.2934 14.4239L25.2258 14.0625ZM22.6068 9.87574L23.3373 9.1929L23.3372 9.19281L22.6068 9.87574ZM19.0912 6.16433C18.5863 5.94052 17.9955 6.16841 17.7717 6.67331C17.5479 7.17822 17.7758 7.76895 18.2807 7.99276L19.0912 6.16433ZM8.61768 7.65446C8.93572 8.10598 9.55957 8.21419 10.0111 7.89615C10.4626 7.57811 10.5708 6.95426 10.2528 6.50274L8.61768 7.65446ZM5.97113 0.424137C5.65309 -0.0273812 5.02924 -0.135587 4.57772 0.182454C4.1262 0.500494 4.018 1.12434 4.33604 1.57586L5.97113 0.424137ZM17.0888 14.6998C17.0888 15.2521 17.5365 15.6998 18.0888 15.6998C18.6411 15.6998 19.0888 15.2521 19.0888 14.6998H17.0888ZM19.0888 12.5488C19.0888 11.9965 18.6411 11.5488 18.0888 11.5488C17.5365 11.5488 17.0888 11.9965 17.0888 12.5488H19.0888ZM17.8666 6.50258C17.5485 6.95404 17.6566 7.57791 18.1081 7.89604C18.5595 8.21416 19.1834 8.10608 19.5015 7.65462L17.8666 6.50258ZM23.7849 1.57602C24.103 1.12456 23.9949 0.500689 23.5435 0.182563C23.092 -0.135563 22.4681 -0.027476 22.15 0.423982L23.7849 1.57602ZM11.0331 14.6998V12.5488H9.03308V14.6998H11.0331ZM9.84129 7.99279C12.5388 6.79729 15.5839 6.79729 18.2813 7.99279L19.0917 6.16432C15.8782 4.74011 12.2444 4.74011 9.03093 6.16432L9.84129 7.99279ZM9.0303 6.16433C7.43375 6.872 5.99085 7.90218 4.78424 9.19281L6.24521 10.5587C7.27116 9.46128 8.49376 8.58982 9.84076 7.99276L9.0303 6.16433ZM4.78415 9.1929C3.56959 10.4924 2.61194 12.0243 1.96302 13.7018L3.82832 14.4233C4.38631 12.9809 5.20795 11.6684 6.24529 10.5586L4.78415 9.1929ZM1.96325 13.7012C1.31024 15.386 0.975154 17.185 0.975464 19.0001L2.97546 18.9998C2.9752 17.4306 3.26497 15.8769 3.82809 14.4239L1.96325 13.7012ZM1.97546 19.9999H26.146V17.9999H1.97546V19.9999ZM27.146 19.0001C27.1463 17.185 26.8112 15.386 26.1582 13.7012L24.2934 14.4239C24.8565 15.8769 25.1463 17.4306 25.146 18.9998L27.146 19.0001ZM26.1585 13.7018C25.5095 12.0243 24.5519 10.4924 23.3373 9.1929L21.8762 10.5586C22.9135 11.6684 23.7352 12.9809 24.2932 14.4233L26.1585 13.7018ZM23.3372 9.19281C22.1306 7.90218 20.6877 6.872 19.0912 6.16433L18.2807 7.99276C19.6277 8.58982 20.8503 9.46128 21.8763 10.5587L23.3372 9.19281ZM10.2528 6.50274L5.97113 0.424137L4.33604 1.57586L8.61768 7.65446L10.2528 6.50274ZM19.0888 14.6998V12.5488H17.0888V14.6998H19.0888ZM19.5015 7.65462L23.7849 1.57602L22.15 0.423982L17.8666 6.50258L19.5015 7.65462Z" fill="white"/>
</svg>
