<svg width="20" height="22" viewBox="0 0 20 22" fill="none" xmlns="http://www.w3.org/2000/svg">
<path fill-rule="evenodd" clip-rule="evenodd" d="M13.509 13.83H6.49083C4.42524 13.9325 2.59522 15.1942 1.76482 17.0883C0.763241 19.0547 2.76216 20.9133 5.08691 20.9133H14.9129C17.2391 20.9133 19.238 19.0547 18.235 17.0883C17.4046 15.1942 15.5746 13.9325 13.509 13.83Z" stroke="black" stroke-width="2" stroke-linecap="round" stroke-linejoin="round"/>
<path fill-rule="evenodd" clip-rule="evenodd" d="M14.2499 5.32999C14.2499 7.6772 12.3471 9.57999 9.99994 9.57999C7.65273 9.57999 5.74994 7.6772 5.74994 5.32999C5.74994 2.98278 7.65273 1.07999 9.99994 1.07999C11.1271 1.07999 12.2081 1.52775 13.0051 2.32478C13.8022 3.12181 14.2499 4.20282 14.2499 5.32999Z" stroke="black" stroke-width="2" stroke-linecap="round" stroke-linejoin="round"/>
</svg>
