<svg width="22" height="22" viewBox="0 0 22 22" fill="none" xmlns="http://www.w3.org/2000/svg">
<path fill-rule="evenodd" clip-rule="evenodd" d="M1 10.9997C1.00034 6.22924 4.37044 2.12335 9.04929 1.19299C13.7281 0.262639 18.4126 2.76694 20.2379 7.17437C22.0632 11.5818 20.521 16.6648 16.5543 19.3149C12.5877 21.965 7.30144 21.4441 3.9284 18.0707C2.05319 16.1953 0.999809 13.6518 1 10.9997Z" stroke="white" stroke-width="2" stroke-linecap="round" stroke-linejoin="round"/>
<path d="M7.24963 9.99969C6.69735 9.99969 6.24963 10.4474 6.24963 10.9997C6.24963 11.552 6.69735 11.9997 7.24963 11.9997V9.99969ZM10.9994 11.9997C11.5517 11.9997 11.9994 11.552 11.9994 10.9997C11.9994 10.4474 11.5517 9.99969 10.9994 9.99969V11.9997ZM10.9994 9.99969C10.4471 9.99969 9.99942 10.4474 9.99942 10.9997C9.99942 11.552 10.4471 11.9997 10.9994 11.9997V9.99969ZM14.7492 11.9997C15.3015 11.9997 15.7492 11.552 15.7492 10.9997C15.7492 10.4474 15.3015 9.99969 14.7492 9.99969V11.9997ZM11.9994 10.9997C11.9994 10.4474 11.5517 9.99969 10.9994 9.99969C10.4471 9.99969 9.99942 10.4474 9.99942 10.9997H11.9994ZM9.99942 14.7495C9.99942 15.3018 10.4471 15.7495 10.9994 15.7495C11.5517 15.7495 11.9994 15.3018 11.9994 14.7495H9.99942ZM9.99942 10.9997C9.99942 11.552 10.4471 11.9997 10.9994 11.9997C11.5517 11.9997 11.9994 11.552 11.9994 10.9997H9.99942ZM11.9994 7.24991C11.9994 6.69762 11.5517 6.24991 10.9994 6.24991C10.4471 6.24991 9.99942 6.69762 9.99942 7.24991H11.9994ZM7.24963 11.9997H10.9994V9.99969H7.24963V11.9997ZM10.9994 11.9997H14.7492V9.99969H10.9994V11.9997ZM9.99942 10.9997V14.7495H11.9994V10.9997H9.99942ZM11.9994 10.9997V7.24991H9.99942V10.9997H11.9994Z" fill="white"/>
</svg>
