<svg width="1440" height="910" viewBox="0 0 1440 910" fill="none" xmlns="http://www.w3.org/2000/svg">
<path d="M540.222 861.088L540.253 861.095L540.283 861.104C703.363 909.172 928.221 913.637 1112.4 906.063C1204.47 902.277 1286.34 895.484 1345.19 889.638C1374.62 886.715 1398.29 884.029 1414.6 882.073C1422.76 881.095 1429.07 880.3 1433.35 879.75C1435.49 879.475 1437.12 879.26 1438.21 879.115C1438.52 879.075 1438.78 879.04 1439 879.01V272.857C1439 272.853 1438.99 272.85 1438.99 272.847C1438.77 272.647 1438.44 272.349 1437.99 271.96C1437.1 271.184 1435.77 270.049 1433.99 268.62C1430.43 265.763 1425.09 261.734 1418.01 257.062C1403.85 247.718 1382.7 235.806 1354.78 225.556C1298.95 205.061 1216.03 191.205 1107.74 217.887C999.003 244.678 909.562 230.097 809.823 205.504C791.055 200.876 771.923 195.895 752.228 190.766C667.255 168.64 571.809 143.787 449.911 132.877C299.56 119.421 185.469 86.4268 108.951 56.7875C70.693 41.968 41.8286 27.9873 22.5222 17.707C12.869 12.5669 5.60522 8.35185 0.751465 5.41959C-1.67542 3.95347 -3.49988 2.80803 -4.71924 2.02799C-4.81665 1.96565 -4.91028 1.90563 -5 1.84798V905.467C-4.8147 905.404 -4.61047 905.334 -4.38733 905.258C-3.98132 905.12 -3.51282 904.961 -2.98303 904.783C-0.781128 904.042 2.47961 902.964 6.71875 901.613C15.197 898.91 27.5896 895.116 43.2546 890.744C74.5841 882.001 119.007 870.95 171.389 861.714C276.135 843.246 412.786 832.021 540.222 861.088Z" fill="#00498C" fill-opacity="0.63" stroke="white" stroke-width="2"/>
</svg>
