<svg width="1440" height="809" viewBox="0 0 1440 809" fill="none" xmlns="http://www.w3.org/2000/svg">
<path d="M1439 179.799V807.24C1438.57 806.99 1438.06 806.69 1437.45 806.343C1435.42 805.178 1432.38 803.481 1428.35 801.352C1420.29 797.095 1408.27 791.107 1392.41 784.176C1360.7 770.313 1313.66 752.678 1252.27 737.563C1129.49 707.333 949.349 687.19 719.827 727.482C490.601 767.723 310.741 747.599 188.208 717.43C126.94 702.345 80.002 684.747 48.3891 670.927C32.5826 664.016 20.6077 658.05 12.5887 653.814C8.57925 651.696 5.55881 650.011 3.54296 648.856C2.53503 648.279 1.77826 647.834 1.27458 647.535C1.17269 647.474 1.08116 647.42 1 647.371V4.57905C1.38703 4.54154 1.89811 4.49305 2.53051 4.43523C4.1372 4.28832 6.52695 4.08113 9.65484 3.84046C15.9106 3.35912 25.1189 2.74388 36.9203 2.20914C60.5233 1.13965 94.4976 0.392253 135.969 1.68196C218.915 4.26149 331.833 14.9896 451.738 47.5786C691.727 112.806 844.433 152.517 1056.18 112.827C1161.73 93.0438 1257.55 109.857 1327.01 131.628C1361.74 142.513 1389.87 154.635 1409.31 164.033C1419.03 168.731 1426.57 172.749 1431.69 175.59C1434.25 177.01 1436.2 178.136 1437.5 178.907C1438.16 179.292 1438.65 179.588 1438.98 179.787C1438.99 179.791 1438.99 179.795 1439 179.799Z" fill="#1B6700" fill-opacity="0.49" stroke="white" stroke-width="2"/>
</svg>
