<svg width="186" height="186" viewBox="0 0 186 186" fill="none" xmlns="http://www.w3.org/2000/svg">
<circle cx="93" cy="93" r="91.5" fill="url(#paint0_radial_417_1100)" fill-opacity="0.23" stroke="white" stroke-width="3" stroke-miterlimit="4.13357" stroke-dasharray="10 10"/>
<path d="M82 91.5004C81.1716 91.5004 80.5 92.172 80.5 93.0004C80.5 93.8289 81.1716 94.5004 82 94.5004V91.5004ZM93.0005 94.5004C93.8289 94.5004 94.5005 93.8289 94.5005 93.0004C94.5005 92.172 93.8289 91.5004 93.0005 91.5004V94.5004ZM93.0031 91.5004C92.1746 91.5004 91.5031 92.172 91.5031 93.0004C91.5031 93.8289 92.1746 94.5004 93.0031 94.5004V91.5004ZM104.004 94.5004C104.832 94.5004 105.504 93.8289 105.504 93.0004C105.504 92.172 104.832 91.5004 104.004 91.5004V94.5004ZM94.502 92.9994C94.502 92.171 93.8305 91.4994 93.002 91.4994C92.1736 91.4994 91.502 92.171 91.502 92.9994H94.502ZM91.502 104C91.502 104.828 92.1736 105.5 93.002 105.5C93.8305 105.5 94.502 104.828 94.502 104H91.502ZM91.502 93.0005C91.502 93.8289 92.1736 94.5005 93.002 94.5005C93.8305 94.5005 94.502 93.8289 94.502 93.0005H91.502ZM94.502 82C94.502 81.1716 93.8305 80.5 93.002 80.5C92.1736 80.5 91.502 81.1716 91.502 82H94.502ZM82 94.5004H93.0005V91.5004H82V94.5004ZM93.0031 94.5004H104.004V91.5004H93.0031V94.5004ZM93.002 92.9994H91.502C91.502 92.9994 91.502 92.9994 91.502 92.9994V92.9994C91.502 92.9994 91.502 92.9994 91.502 92.9994C91.502 92.9994 91.502 92.9994 91.502 92.9994C91.502 92.9994 91.502 92.9994 91.502 92.9994C91.502 92.9994 91.502 92.9994 91.502 92.9995C91.502 92.9995 91.502 92.9995 91.502 92.9995C91.502 92.9995 91.502 92.9995 91.502 92.9995C91.502 92.9995 91.502 92.9995 91.502 92.9995C91.502 92.9995 91.502 92.9995 91.502 92.9995C91.502 92.9995 91.502 92.9996 91.502 92.9996C91.502 92.9996 91.502 92.9996 91.502 92.9996C91.502 92.9996 91.502 92.9996 91.502 92.9997C91.502 92.9997 91.502 92.9997 91.502 92.9997C91.502 92.9997 91.502 92.9997 91.502 92.9998C91.502 92.9998 91.502 92.9998 91.502 92.9998C91.502 92.9999 91.502 92.9999 91.502 92.9999C91.502 92.9999 91.502 93 91.502 93C91.502 93 91.502 93 91.502 93.0001C91.502 93.0001 91.502 93.0001 91.502 93.0002C91.502 93.0002 91.502 93.0003 91.502 93.0003C91.502 93.0003 91.502 93.0004 91.502 93.0004C91.502 93.0005 91.502 93.0005 91.502 93.0006C91.502 93.0006 91.502 93.0007 91.502 93.0007C91.502 93.0008 91.502 93.0008 91.502 93.0009C91.502 93.0009 91.502 93.001 91.502 93.001C91.502 93.0011 91.502 93.0012 91.502 93.0012C91.502 93.0013 91.502 93.0014 91.502 93.0014C91.502 93.0015 91.502 93.0016 91.502 93.0016C91.502 93.0017 91.502 93.0018 91.502 93.0019C91.502 93.0019 91.502 93.002 91.502 93.0021C91.502 93.0022 91.502 93.0023 91.502 93.0024C91.502 93.0025 91.502 93.0026 91.502 93.0026C91.502 93.0027 91.502 93.0028 91.502 93.0029C91.502 93.003 91.502 93.0031 91.502 93.0032C91.502 93.0034 91.502 93.0035 91.502 93.0036C91.502 93.0037 91.502 93.0038 91.502 93.0039C91.502 93.004 91.502 93.0042 91.502 93.0043C91.502 93.0044 91.502 93.0045 91.502 93.0047C91.502 93.0048 91.502 93.0049 91.502 93.0051C91.502 93.0052 91.502 93.0054 91.502 93.0055C91.502 93.0056 91.502 93.0058 91.502 93.0059C91.502 93.0061 91.502 93.0062 91.502 93.0064C91.502 93.0066 91.502 93.0067 91.502 93.0069C91.502 93.0071 91.502 93.0072 91.502 93.0074C91.502 93.0076 91.502 93.0078 91.502 93.0079C91.502 93.0081 91.502 93.0083 91.502 93.0085C91.502 93.0087 91.502 93.0089 91.502 93.0091C91.502 93.0093 91.502 93.0095 91.502 93.0097C91.502 93.0099 91.502 93.0101 91.502 93.0103C91.502 93.0105 91.502 93.0107 91.502 93.0109C91.502 93.0112 91.502 93.0114 91.502 93.0116C91.502 93.0119 91.502 93.0121 91.502 93.0123C91.502 93.0126 91.502 93.0128 91.502 93.0131C91.502 93.0133 91.502 93.0136 91.502 93.0138C91.502 93.0141 91.502 93.0143 91.502 93.0146C91.502 93.0149 91.502 93.0151 91.502 93.0154C91.502 93.0157 91.502 93.016 91.502 93.0163C91.502 93.0165 91.502 93.0168 91.502 93.0171C91.502 93.0174 91.502 93.0177 91.502 93.018C91.502 93.0183 91.502 93.0186 91.502 93.019C91.502 93.0193 91.502 93.0196 91.502 93.0199C91.502 93.0202 91.502 93.0206 91.502 93.0209C91.502 93.0212 91.502 93.0216 91.502 93.0219C91.502 93.0223 91.502 93.0226 91.502 93.023C91.502 93.0233 91.502 93.0237 91.502 93.0241C91.502 93.0244 91.502 93.0248 91.502 93.0252C91.502 93.0256 91.502 93.026 91.502 93.0263C91.502 93.0267 91.502 93.0271 91.502 93.0275C91.502 93.0279 91.502 93.0283 91.502 93.0288C91.502 93.0292 91.502 93.0296 91.502 93.03C91.502 93.0304 91.502 93.0309 91.502 93.0313C91.502 93.0317 91.502 93.0322 91.502 93.0326C91.502 93.0331 91.502 93.0335 91.502 93.034C91.502 93.0345 91.502 93.0349 91.502 93.0354C91.502 93.0359 91.502 93.0364 91.502 93.0368C91.502 93.0373 91.502 93.0378 91.502 93.0383C91.502 93.0388 91.502 93.0393 91.502 93.0398C91.502 93.0403 91.502 93.0409 91.502 93.0414C91.502 93.0419 91.502 93.0424 91.502 93.043C91.502 93.0435 91.502 93.0441 91.502 93.0446C91.502 93.0452 91.502 93.0457 91.502 93.0463C91.502 93.0469 91.502 93.0474 91.502 93.048C91.502 93.0486 91.502 93.0492 91.502 93.0498C91.502 93.0504 91.502 93.051 91.502 93.0516C91.502 93.0522 91.502 93.0528 91.502 93.0534C91.502 93.054 91.502 93.0546 91.502 93.0553C91.502 93.0559 91.502 93.0566 91.502 93.0572C91.502 93.0579 91.502 93.0585 91.502 93.0592C91.502 93.0598 91.502 93.0605 91.502 93.0612C91.502 93.0619 91.502 93.0626 91.502 93.0632C91.502 93.0639 91.502 93.0646 91.502 93.0653C91.502 93.0661 91.502 93.0668 91.502 93.0675C91.502 93.0682 91.502 93.069 91.502 93.0697C91.502 93.0704 91.502 93.0712 91.502 93.0719C91.502 93.0727 91.502 93.0735 91.502 93.0742C91.502 93.075 91.502 93.0758 91.502 93.0766C91.502 93.0774 91.502 93.0781 91.502 93.079C91.502 93.0798 91.502 93.0806 91.502 93.0814C91.502 93.0822 91.502 93.083 91.502 93.0839C91.502 93.0847 91.502 93.0855 91.502 93.0864C91.502 93.0873 91.502 93.0881 91.502 93.089C91.502 93.0899 91.502 93.0907 91.502 93.0916C91.502 93.0925 91.502 93.0934 91.502 93.0943C91.502 93.0952 91.502 93.0961 91.502 93.097C91.502 93.098 91.502 93.0989 91.502 93.0998C91.502 93.1008 91.502 93.1017 91.502 93.1027C91.502 93.1036 91.502 93.1046 91.502 93.1056C91.502 93.1065 91.502 93.1075 91.502 93.1085C91.502 93.1095 91.502 93.1105 91.502 93.1115C91.502 93.1125 91.502 93.1135 91.502 93.1146C91.502 93.1156 91.502 93.1166 91.502 93.1177C91.502 93.1187 91.502 93.1198 91.502 93.1209C91.502 93.1219 91.502 93.123 91.502 93.1241C91.502 93.1252 91.502 93.1263 91.502 93.1274C91.502 93.1285 91.502 93.1296 91.502 93.1307C91.502 93.1318 91.502 93.1329 91.502 93.1341C91.502 93.1352 91.502 93.1364 91.502 93.1375C91.502 93.1387 91.502 93.1399 91.502 93.1411C91.502 93.1422 91.502 93.1434 91.502 93.1446C91.502 93.1458 91.502 93.147 91.502 93.1483C91.502 93.1495 91.502 93.1507 91.502 93.1519C91.502 93.1532 91.502 93.1544 91.502 93.1557C91.502 93.157 91.502 93.1582 91.502 93.1595C91.502 93.1608 91.502 93.1621 91.502 93.1634C91.502 93.1647 91.502 93.166 91.502 93.1673C91.502 93.1686 91.502 93.17 91.502 93.1713C91.502 93.1727 91.502 93.174 91.502 93.1754C91.502 93.1767 91.502 93.1781 91.502 93.1795C91.502 93.1809 91.502 93.1823 91.502 93.1837C91.502 93.1851 91.502 93.1865 91.502 93.1879C91.502 93.1894 91.502 93.1908 91.502 93.1922C91.502 93.1937 91.502 93.1952 91.502 93.1966C91.502 93.1981 91.502 93.1996 91.502 93.2011C91.502 93.2026 91.502 93.2041 91.502 93.2056C91.502 93.2071 91.502 93.2086 91.502 93.2102C91.502 93.2117 91.502 93.2133 91.502 93.2148C91.502 93.2164 91.502 93.218 91.502 93.2195C91.502 93.2211 91.502 93.2227 91.502 93.2243C91.502 93.2259 91.502 93.2275 91.502 93.2292C91.502 93.2308 91.502 93.2324 91.502 93.2341C91.502 93.2358 91.502 93.2374 91.502 93.2391C91.502 93.2408 91.502 93.2425 91.502 93.2442C91.502 93.2459 91.502 93.2476 91.502 93.2493C91.502 93.251 91.502 93.2527 91.502 93.2545C91.502 93.2562 91.502 93.258 91.502 93.2598C91.502 93.2615 91.502 93.2633 91.502 93.2651C91.502 93.2669 91.502 93.2687 91.502 93.2705C91.502 93.2724 91.502 93.2742 91.502 93.276C91.502 93.2779 91.502 93.2797 91.502 93.2816C91.502 93.2835 91.502 93.2854 91.502 93.2873C91.502 93.2891 91.502 93.2911 91.502 93.293C91.502 93.2949 91.502 93.2968 91.502 93.2988C91.502 93.3007 91.502 93.3027 91.502 93.3046C91.502 93.3066 91.502 93.3086 91.502 93.3106C91.502 93.3126 91.502 93.3146 91.502 93.3166C91.502 93.3186 91.502 93.3207 91.502 93.3227C91.502 93.3247 91.502 93.3268 91.502 93.3289C91.502 93.3309 91.502 93.333 91.502 93.3351C91.502 93.3372 91.502 93.3393 91.502 93.3415C91.502 93.3436 91.502 93.3457 91.502 93.3479C91.502 93.35 91.502 93.3522 91.502 93.3544C91.502 93.3566 91.502 93.3587 91.502 93.3609C91.502 93.3632 91.502 93.3654 91.502 93.3676C91.502 93.3698 91.502 93.3721 91.502 93.3743C91.502 93.3766 91.502 93.3789 91.502 93.3812C91.502 93.3834 91.502 93.3857 91.502 93.388C91.502 93.3904 91.502 93.3927 91.502 93.395C91.502 93.3974 91.502 93.3997 91.502 93.4021C91.502 93.4045 91.502 93.4068 91.502 93.4092C91.502 93.4116 91.502 93.414 91.502 93.4165C91.502 93.4189 91.502 93.4213 91.502 93.4238C91.502 93.4262 91.502 93.4287 91.502 93.4312C91.502 93.4337 91.502 93.4362 91.502 93.4387C91.502 93.4412 91.502 93.4437 91.502 93.4463C91.502 93.4488 91.502 93.4513 91.502 93.4539C91.502 93.4565 91.502 93.4591 91.502 93.4617C91.502 93.4643 91.502 93.4669 91.502 93.4695C91.502 93.4721 91.502 93.4748 91.502 93.4774C91.502 93.4801 91.502 93.4827 91.502 93.4854C91.502 93.4881 91.502 93.4908 91.502 93.4935C91.502 93.4962 91.502 93.499 91.502 93.5017C91.502 93.5045 91.502 93.5072 91.502 93.51C91.502 93.5128 91.502 93.5156 91.502 93.5184C91.502 93.5212 91.502 93.524 91.502 93.5268C91.502 93.5297 91.502 93.5325 91.502 93.5354C91.502 93.5382 91.502 93.5411 91.502 93.544C91.502 93.5469 91.502 93.5498 91.502 93.5528C91.502 93.5557 91.502 93.5586 91.502 93.5616C91.502 93.5645 91.502 93.5675 91.502 93.5705C91.502 93.5735 91.502 93.5765 91.502 93.5795C91.502 93.5826 91.502 93.5856 91.502 93.5886C91.502 93.5917 91.502 93.5948 91.502 93.5978C91.502 93.6009 91.502 93.604 91.502 93.6071C91.502 93.6103 91.502 93.6134 91.502 93.6165C91.502 93.6197 91.502 93.6229 91.502 93.626C91.502 93.6292 91.502 93.6324 91.502 93.6356C91.502 93.6388 91.502 93.6421 91.502 93.6453C91.502 93.6486 91.502 93.6518 91.502 93.6551C91.502 93.6584 91.502 93.6617 91.502 93.665C91.502 93.6683 91.502 93.6716 91.502 93.675C91.502 93.6783 91.502 93.6817 91.502 93.6851C91.502 93.6884 91.502 93.6918 91.502 93.6952C91.502 93.6986 91.502 93.7021 91.502 93.7055C91.502 93.709 91.502 93.7124 91.502 93.7159C91.502 93.7194 91.502 93.7229 91.502 93.7264C91.502 93.7299 91.502 93.7334 91.502 93.737C91.502 93.7405 91.502 93.7441 91.502 93.7477C91.502 93.7512 91.502 93.7548 91.502 93.7585C91.502 93.7621 91.502 93.7657 91.502 93.7694C91.502 93.773 91.502 93.7767 91.502 93.7804C91.502 93.784 91.502 93.7877 91.502 93.7915C91.502 93.7952 91.502 93.7989 91.502 93.8027C91.502 93.8064 91.502 93.8102 91.502 93.814C91.502 93.8178 91.502 93.8216 91.502 93.8254C91.502 93.8292 91.502 93.8331 91.502 93.8369C91.502 93.8408 91.502 93.8447 91.502 93.8485C91.502 93.8524 91.502 93.8564 91.502 93.8603C91.502 93.8642 91.502 93.8682 91.502 93.8721C91.502 93.8761 91.502 93.8801 91.502 93.8841C91.502 93.8881 91.502 93.8921 91.502 93.8962C91.502 93.9002 91.502 93.9043 91.502 93.9083C91.502 93.9124 91.502 93.9165 91.502 93.9206C91.502 93.9247 91.502 93.9289 91.502 93.933C91.502 93.9372 91.502 93.9413 91.502 93.9455C91.502 93.9497 91.502 93.9539 91.502 93.9581C91.502 93.9623 91.502 93.9666 91.502 93.9708C91.502 93.9751 91.502 93.9794 91.502 93.9837C91.502 93.988 91.502 93.9923 91.502 93.9966C91.502 94.001 91.502 94.0053 91.502 94.0097C91.502 94.0141 91.502 94.0185 91.502 94.0229C91.502 94.0273 91.502 94.0317 91.502 94.0362C91.502 94.0406 91.502 94.0451 91.502 94.0496C91.502 94.0541 91.502 94.0586 91.502 94.0631C91.502 94.0676 91.502 94.0722 91.502 94.0767C91.502 94.0813 91.502 94.0859 91.502 94.0905C91.502 94.0951 91.502 94.0997 91.502 94.1044C91.502 94.109 91.502 94.1137 91.502 94.1183C91.502 94.123 91.502 94.1277 91.502 94.1324C91.502 94.1372 91.502 94.1419 91.502 94.1467C91.502 94.1514 91.502 94.1562 91.502 94.161C91.502 94.1658 91.502 94.1706 91.502 94.1755C91.502 94.1803 91.502 94.1852 91.502 94.19C91.502 94.1949 91.502 94.1998 91.502 94.2047C91.502 94.2097 91.502 94.2146 91.502 94.2196C91.502 94.2245 91.502 94.2295 91.502 94.2345C91.502 94.2395 91.502 94.2445 91.502 94.2496C91.502 94.2546 91.502 94.2597 91.502 94.2647C91.502 94.2698 91.502 94.2749 91.502 94.2801C91.502 94.2852 91.502 94.2903 91.502 94.2955C91.502 94.3006 91.502 94.3058 91.502 94.311C91.502 94.3162 91.502 94.3215 91.502 94.3267C91.502 94.332 91.502 94.3372 91.502 94.3425C91.502 94.3478 91.502 94.3531 91.502 94.3584C91.502 94.3638 91.502 94.3691 91.502 94.3745C91.502 94.3799 91.502 94.3852 91.502 94.3907C91.502 94.3961 91.502 94.4015 91.502 94.407C91.502 94.4124 91.502 94.4179 91.502 94.4234C91.502 94.4289 91.502 94.4344 91.502 94.44C91.502 94.4455 91.502 94.4511 91.502 94.4566C91.502 94.4622 91.502 94.4678 91.502 94.4735C91.502 94.4791 91.502 94.4847 91.502 94.4904C91.502 94.4961 91.502 94.5018 91.502 94.5075C91.502 94.5132 91.502 94.5189 91.502 94.5247C91.502 94.5304 91.502 94.5362 91.502 94.542C91.502 94.5478 91.502 94.5536 91.502 94.5595C91.502 94.5653 91.502 94.5712 91.502 94.5771C91.502 94.5829 91.502 94.5889 91.502 94.5948C91.502 94.6007 91.502 94.6067 91.502 94.6126C91.502 94.6186 91.502 94.6246 91.502 94.6306C91.502 94.6367 91.502 94.6427 91.502 94.6488C91.502 94.6548 91.502 94.6609 91.502 94.667C91.502 94.6731 91.502 94.6793 91.502 94.6854C91.502 94.6916 91.502 94.6977 91.502 94.7039C91.502 94.7101 91.502 94.7164 91.502 94.7226C91.502 94.7288 91.502 94.7351 91.502 94.7414C91.502 94.7477 91.502 94.754 91.502 94.7603C91.502 94.7667 91.502 94.773 91.502 94.7794C91.502 94.7858 91.502 94.7922 91.502 94.7986C91.502 94.805 91.502 94.8115 91.502 94.818C91.502 94.8244 91.502 94.8309 91.502 94.8374C91.502 94.844 91.502 94.8505 91.502 94.8571C91.502 94.8636 91.502 94.8702 91.502 94.8768C91.502 94.8834 91.502 94.8901 91.502 94.8967C91.502 94.9034 91.502 94.9101 91.502 94.9168C91.502 94.9235 91.502 94.9302 91.502 94.937C91.502 94.9437 91.502 94.9505 91.502 94.9573C91.502 94.9641 91.502 94.9709 91.502 94.9777C91.502 94.9846 91.502 94.9915 91.502 94.9983C91.502 95.0052 91.502 95.0122 91.502 95.0191C91.502 95.026 91.502 95.033 91.502 95.04C91.502 95.047 91.502 95.054 91.502 95.061C91.502 95.0681 91.502 95.0751 91.502 95.0822C91.502 95.0893 91.502 95.0964 91.502 95.1035C91.502 95.1107 91.502 95.1178 91.502 95.125C91.502 95.1322 91.502 95.1394 91.502 95.1466C91.502 95.1538 91.502 95.1611 91.502 95.1684C91.502 95.1757 91.502 95.183 91.502 95.1903C91.502 95.1976 91.502 95.205 91.502 95.2123C91.502 95.2197 91.502 95.2271 91.502 95.2345C91.502 95.242 91.502 95.2494 91.502 95.2569C91.502 95.2644 91.502 95.2719 91.502 95.2794C91.502 95.2869 91.502 95.2945 91.502 95.302C91.502 95.3096 91.502 95.3172 91.502 95.3248C91.502 95.3325 91.502 95.3401 91.502 95.3478C91.502 95.3555 91.502 95.3632 91.502 95.3709C91.502 95.3786 91.502 95.3864 91.502 95.3941C91.502 95.4019 91.502 95.4097 91.502 95.4175C91.502 95.4254 91.502 95.4332 91.502 95.4411C91.502 95.449 91.502 95.4569 91.502 95.4648C91.502 95.4727 91.502 95.4807 91.502 95.4887C91.502 95.4966 91.502 95.5046 91.502 95.5127C91.502 95.5207 91.502 95.5288 91.502 95.5368C91.502 95.5449 91.502 95.553 91.502 95.5612C91.502 95.5693 91.502 95.5774 91.502 95.5856C91.502 95.5938 91.502 95.602 91.502 95.6103C91.502 95.6185 91.502 95.6268 91.502 95.635C91.502 95.6433 91.502 95.6517 91.502 95.66C91.502 95.6683 91.502 95.6767 91.502 95.6851C91.502 95.6935 91.502 95.7019 91.502 95.7103C91.502 95.7188 91.502 95.7273 91.502 95.7358C91.502 95.7443 91.502 95.7528 91.502 95.7613C91.502 95.7699 91.502 95.7785 91.502 95.7871C91.502 95.7957 91.502 95.8043 91.502 95.813C91.502 95.8216 91.502 95.8303 91.502 95.839C91.502 95.8477 91.502 95.8565 91.502 95.8652C91.502 95.874 91.502 95.8828 91.502 95.8916C91.502 95.9004 91.502 95.9093 91.502 95.9181C91.502 95.927 91.502 95.9359 91.502 95.9448C91.502 95.9537 91.502 95.9627 91.502 95.9717C91.502 95.9807 91.502 95.9897 91.502 95.9987C91.502 96.0077 91.502 96.0168 91.502 96.0259C91.502 96.035 91.502 96.0441 91.502 96.0532C91.502 96.0624 91.502 96.0715 91.502 96.0807C91.502 96.0899 91.502 96.0992 91.502 96.1084C91.502 96.1177 91.502 96.127 91.502 96.1363C91.502 96.1456 91.502 96.1549 91.502 96.1643C91.502 96.1736 91.502 96.183 91.502 96.1924C91.502 96.2019 91.502 96.2113 91.502 96.2208C91.502 96.2303 91.502 96.2398 91.502 96.2493C91.502 96.2588 91.502 96.2684 91.502 96.278C91.502 96.2875 91.502 96.2972 91.502 96.3068C91.502 96.3164 91.502 96.3261 91.502 96.3358C91.502 96.3455 91.502 96.3552 91.502 96.365C91.502 96.3748 91.502 96.3845 91.502 96.3944C91.502 96.4042 91.502 96.414 91.502 96.4239C91.502 96.4337 91.502 96.4436 91.502 96.4536C91.502 96.4635 91.502 96.4734 91.502 96.4834C91.502 96.4934 91.502 96.5034 91.502 96.5135C91.502 96.5235 91.502 96.5336 91.502 96.5437C91.502 96.5538 91.502 96.5639 91.502 96.574C91.502 96.5842 91.502 96.5944 91.502 96.6046C91.502 96.6148 91.502 96.6251 91.502 96.6353C91.502 96.6456 91.502 96.6559 91.502 96.6662C91.502 96.6766 91.502 96.6869 91.502 96.6973C91.502 96.7077 91.502 96.7181 91.502 96.7285C91.502 96.739 91.502 96.7495 91.502 96.76C91.502 96.7705 91.502 96.781 91.502 96.7916C91.502 96.8021 91.502 96.8127 91.502 96.8234C91.502 96.834 91.502 96.8446 91.502 96.8553C91.502 96.866 91.502 96.8767 91.502 96.8874C91.502 96.8982 91.502 96.9089 91.502 96.9197C91.502 96.9305 91.502 96.9414 91.502 96.9522C91.502 96.9631 91.502 96.974 91.502 96.9849C91.502 96.9958 91.502 97.0068 91.502 97.0178C91.502 97.0287 91.502 97.0397 91.502 97.0508C91.502 97.0618 91.502 97.0729 91.502 97.084C91.502 97.0951 91.502 97.1062 91.502 97.1174C91.502 97.1285 91.502 97.1397 91.502 97.1509C91.502 97.1622 91.502 97.1734 91.502 97.1847C91.502 97.196 91.502 97.2073 91.502 97.2186C91.502 97.23 91.502 97.2413 91.502 97.2527C91.502 97.2642 91.502 97.2756 91.502 97.287C91.502 97.2985 91.502 97.31 91.502 97.3215C91.502 97.3331 91.502 97.3446 91.502 97.3562C91.502 97.3678 91.502 97.3794 91.502 97.3911C91.502 97.4027 91.502 97.4144 91.502 97.4261C91.502 97.4378 91.502 97.4495 91.502 97.4613C91.502 97.4731 91.502 97.4849 91.502 97.4967C91.502 97.5086 91.502 97.5204 91.502 97.5323C91.502 97.5442 91.502 97.5562 91.502 97.5681C91.502 97.5801 91.502 97.5921 91.502 97.6041C91.502 97.6161 91.502 97.6282 91.502 97.6403C91.502 97.6523 91.502 97.6645 91.502 97.6766C91.502 97.6888 91.502 97.7009 91.502 97.7131C91.502 97.7254 91.502 97.7376 91.502 97.7499C91.502 97.7622 91.502 97.7745 91.502 97.7868C91.502 97.7991 91.502 97.8115 91.502 97.8239C91.502 97.8363 91.502 97.8487 91.502 97.8612C91.502 97.8737 91.502 97.8862 91.502 97.8987C91.502 97.9112 91.502 97.9238 91.502 97.9364C91.502 97.949 91.502 97.9616 91.502 97.9743C91.502 97.9869 91.502 97.9996 91.502 98.0123C91.502 98.0251 91.502 98.0378 91.502 98.0506C91.502 98.0634 91.502 98.0762 91.502 98.0891C91.502 98.1019 91.502 98.1148 91.502 98.1277C91.502 98.1406 91.502 98.1536 91.502 98.1666C91.502 98.1796 91.502 98.1926 91.502 98.2056C91.502 98.2187 91.502 98.2318 91.502 98.2449C91.502 98.258 91.502 98.2711 91.502 98.2843C91.502 98.2975 91.502 98.3107 91.502 98.3239C91.502 98.3372 91.502 98.3505 91.502 98.3638C91.502 98.3771 91.502 98.3904 91.502 98.4038C91.502 98.4172 91.502 98.4306 91.502 98.444C91.502 98.4575 91.502 98.471 91.502 98.4845C91.502 98.498 91.502 98.5115 91.502 98.5251C91.502 98.5387 91.502 98.5523 91.502 98.5659C91.502 98.5796 91.502 98.5932 91.502 98.607C91.502 98.6207 91.502 98.6344 91.502 98.6482C91.502 98.662 91.502 98.6758 91.502 98.6896C91.502 98.7035 91.502 98.7173 91.502 98.7313C91.502 98.7452 91.502 98.7591 91.502 98.7731C91.502 98.7871 91.502 98.8011 91.502 98.8151C91.502 98.8292 91.502 98.8433 91.502 98.8574C91.502 98.8715 91.502 98.8856 91.502 98.8998C91.502 98.914 91.502 98.9282 91.502 98.9425C91.502 98.9567 91.502 98.971 91.502 98.9853C91.502 98.9997 91.502 99.014 91.502 99.0284C91.502 99.0428 91.502 99.0572 91.502 99.0717C91.502 99.0861 91.502 99.1006 91.502 99.1152C91.502 99.1297 91.502 99.1442 91.502 99.1588C91.502 99.1734 91.502 99.1881 91.502 99.2027C91.502 99.2174 91.502 99.2321 91.502 99.2468C91.502 99.2616 91.502 99.2763 91.502 99.2911C91.502 99.3059 91.502 99.3208 91.502 99.3357C91.502 99.3505 91.502 99.3654 91.502 99.3804C91.502 99.3953 91.502 99.4103 91.502 99.4253C91.502 99.4403 91.502 99.4554 91.502 99.4705C91.502 99.4855 91.502 99.5007 91.502 99.5158C91.502 99.531 91.502 99.5462 91.502 99.5614C91.502 99.5766 91.502 99.5919 91.502 99.6072C91.502 99.6225 91.502 99.6378 91.502 99.6532C91.502 99.6685 91.502 99.6839 91.502 99.6994C91.502 99.7148 91.502 99.7303 91.502 99.7458C91.502 99.7613 91.502 99.7768 91.502 99.7924C91.502 99.808 91.502 99.8236 91.502 99.8393C91.502 99.8549 91.502 99.8706 91.502 99.8863C91.502 99.9021 91.502 99.9178 91.502 99.9336C91.502 99.9494 91.502 99.9652 91.502 99.9811C91.502 99.997 91.502 100.013 91.502 100.029C91.502 100.045 91.502 100.061 91.502 100.077C91.502 100.093 91.502 100.109 91.502 100.125C91.502 100.141 91.502 100.157 91.502 100.173C91.502 100.189 91.502 100.206 91.502 100.222C91.502 100.238 91.502 100.254 91.502 100.271C91.502 100.287 91.502 100.303 91.502 100.32C91.502 100.336 91.502 100.352 91.502 100.369C91.502 100.385 91.502 100.402 91.502 100.418C91.502 100.435 91.502 100.451 91.502 100.468C91.502 100.485 91.502 100.501 91.502 100.518C91.502 100.535 91.502 100.551 91.502 100.568C91.502 100.585 91.502 100.602 91.502 100.618C91.502 100.635 91.502 100.652 91.502 100.669C91.502 100.686 91.502 100.703 91.502 100.72C91.502 100.737 91.502 100.754 91.502 100.771C91.502 100.788 91.502 100.805 91.502 100.822C91.502 100.839 91.502 100.856 91.502 100.873C91.502 100.891 91.502 100.908 91.502 100.925C91.502 100.942 91.502 100.96 91.502 100.977C91.502 100.994 91.502 101.012 91.502 101.029C91.502 101.047 91.502 101.064 91.502 101.082C91.502 101.099 91.502 101.117 91.502 101.134C91.502 101.152 91.502 101.169 91.502 101.187C91.502 101.205 91.502 101.222 91.502 101.24C91.502 101.258 91.502 101.276 91.502 101.293C91.502 101.311 91.502 101.329 91.502 101.347C91.502 101.365 91.502 101.383 91.502 101.401C91.502 101.419 91.502 101.437 91.502 101.455C91.502 101.473 91.502 101.491 91.502 101.509C91.502 101.527 91.502 101.545 91.502 101.563C91.502 101.581 91.502 101.6 91.502 101.618C91.502 101.636 91.502 101.654 91.502 101.673C91.502 101.691 91.502 101.709 91.502 101.728C91.502 101.746 91.502 101.765 91.502 101.783C91.502 101.802 91.502 101.82 91.502 101.839C91.502 101.857 91.502 101.876 91.502 101.895C91.502 101.913 91.502 101.932 91.502 101.951C91.502 101.969 91.502 101.988 91.502 102.007C91.502 102.026 91.502 102.045 91.502 102.064C91.502 102.082 91.502 102.101 91.502 102.12C91.502 102.139 91.502 102.158 91.502 102.177C91.502 102.196 91.502 102.215 91.502 102.235C91.502 102.254 91.502 102.273 91.502 102.292C91.502 102.311 91.502 102.33 91.502 102.35C91.502 102.369 91.502 102.388 91.502 102.408C91.502 102.427 91.502 102.446 91.502 102.466C91.502 102.485 91.502 102.505 91.502 102.524C91.502 102.544 91.502 102.563 91.502 102.583C91.502 102.603 91.502 102.622 91.502 102.642C91.502 102.662 91.502 102.681 91.502 102.701C91.502 102.721 91.502 102.741 91.502 102.76C91.502 102.78 91.502 102.8 91.502 102.82C91.502 102.84 91.502 102.86 91.502 102.88C91.502 102.9 91.502 102.92 91.502 102.94C91.502 102.96 91.502 102.98 91.502 103.001C91.502 103.021 91.502 103.041 91.502 103.061C91.502 103.081 91.502 103.102 91.502 103.122C91.502 103.142 91.502 103.163 91.502 103.183C91.502 103.203 91.502 103.224 91.502 103.244C91.502 103.265 91.502 103.285 91.502 103.306C91.502 103.327 91.502 103.347 91.502 103.368C91.502 103.389 91.502 103.409 91.502 103.43C91.502 103.451 91.502 103.471 91.502 103.492C91.502 103.513 91.502 103.534 91.502 103.555C91.502 103.576 91.502 103.597 91.502 103.618C91.502 103.639 91.502 103.66 91.502 103.681C91.502 103.702 91.502 103.723 91.502 103.744C91.502 103.765 91.502 103.786 91.502 103.808C91.502 103.829 91.502 103.85 91.502 103.872C91.502 103.893 91.502 103.914 91.502 103.936C91.502 103.957 91.502 103.978 91.502 104H94.502C94.502 103.978 94.502 103.957 94.502 103.936C94.502 103.914 94.502 103.893 94.502 103.872C94.502 103.85 94.502 103.829 94.502 103.808C94.502 103.786 94.502 103.765 94.502 103.744C94.502 103.723 94.502 103.702 94.502 103.681C94.502 103.66 94.502 103.639 94.502 103.618C94.502 103.597 94.502 103.576 94.502 103.555C94.502 103.534 94.502 103.513 94.502 103.492C94.502 103.471 94.502 103.451 94.502 103.43C94.502 103.409 94.502 103.389 94.502 103.368C94.502 103.347 94.502 103.327 94.502 103.306C94.502 103.285 94.502 103.265 94.502 103.244C94.502 103.224 94.502 103.203 94.502 103.183C94.502 103.163 94.502 103.142 94.502 103.122C94.502 103.102 94.502 103.081 94.502 103.061C94.502 103.041 94.502 103.021 94.502 103.001C94.502 102.98 94.502 102.96 94.502 102.94C94.502 102.92 94.502 102.9 94.502 102.88C94.502 102.86 94.502 102.84 94.502 102.82C94.502 102.8 94.502 102.78 94.502 102.76C94.502 102.741 94.502 102.721 94.502 102.701C94.502 102.681 94.502 102.662 94.502 102.642C94.502 102.622 94.502 102.603 94.502 102.583C94.502 102.563 94.502 102.544 94.502 102.524C94.502 102.505 94.502 102.485 94.502 102.466C94.502 102.446 94.502 102.427 94.502 102.408C94.502 102.388 94.502 102.369 94.502 102.35C94.502 102.33 94.502 102.311 94.502 102.292C94.502 102.273 94.502 102.254 94.502 102.235C94.502 102.215 94.502 102.196 94.502 102.177C94.502 102.158 94.502 102.139 94.502 102.12C94.502 102.101 94.502 102.082 94.502 102.064C94.502 102.045 94.502 102.026 94.502 102.007C94.502 101.988 94.502 101.969 94.502 101.951C94.502 101.932 94.502 101.913 94.502 101.895C94.502 101.876 94.502 101.857 94.502 101.839C94.502 101.82 94.502 101.802 94.502 101.783C94.502 101.765 94.502 101.746 94.502 101.728C94.502 101.709 94.502 101.691 94.502 101.673C94.502 101.654 94.502 101.636 94.502 101.618C94.502 101.6 94.502 101.581 94.502 101.563C94.502 101.545 94.502 101.527 94.502 101.509C94.502 101.491 94.502 101.473 94.502 101.455C94.502 101.437 94.502 101.419 94.502 101.401C94.502 101.383 94.502 101.365 94.502 101.347C94.502 101.329 94.502 101.311 94.502 101.293C94.502 101.276 94.502 101.258 94.502 101.24C94.502 101.222 94.502 101.205 94.502 101.187C94.502 101.169 94.502 101.152 94.502 101.134C94.502 101.117 94.502 101.099 94.502 101.082C94.502 101.064 94.502 101.047 94.502 101.029C94.502 101.012 94.502 100.994 94.502 100.977C94.502 100.96 94.502 100.942 94.502 100.925C94.502 100.908 94.502 100.891 94.502 100.873C94.502 100.856 94.502 100.839 94.502 100.822C94.502 100.805 94.502 100.788 94.502 100.771C94.502 100.754 94.502 100.737 94.502 100.72C94.502 100.703 94.502 100.686 94.502 100.669C94.502 100.652 94.502 100.635 94.502 100.618C94.502 100.602 94.502 100.585 94.502 100.568C94.502 100.551 94.502 100.535 94.502 100.518C94.502 100.501 94.502 100.485 94.502 100.468C94.502 100.451 94.502 100.435 94.502 100.418C94.502 100.402 94.502 100.385 94.502 100.369C94.502 100.352 94.502 100.336 94.502 100.32C94.502 100.303 94.502 100.287 94.502 100.271C94.502 100.254 94.502 100.238 94.502 100.222C94.502 100.206 94.502 100.189 94.502 100.173C94.502 100.157 94.502 100.141 94.502 100.125C94.502 100.109 94.502 100.093 94.502 100.077C94.502 100.061 94.502 100.045 94.502 100.029C94.502 100.013 94.502 99.997 94.502 99.9811C94.502 99.9652 94.502 99.9494 94.502 99.9336C94.502 99.9178 94.502 99.9021 94.502 99.8863C94.502 99.8706 94.502 99.8549 94.502 99.8393C94.502 99.8236 94.502 99.808 94.502 99.7924C94.502 99.7768 94.502 99.7613 94.502 99.7458C94.502 99.7303 94.502 99.7148 94.502 99.6994C94.502 99.6839 94.502 99.6685 94.502 99.6532C94.502 99.6378 94.502 99.6225 94.502 99.6072C94.502 99.5919 94.502 99.5766 94.502 99.5614C94.502 99.5462 94.502 99.531 94.502 99.5158C94.502 99.5007 94.502 99.4855 94.502 99.4705C94.502 99.4554 94.502 99.4403 94.502 99.4253C94.502 99.4103 94.502 99.3953 94.502 99.3804C94.502 99.3654 94.502 99.3505 94.502 99.3357C94.502 99.3208 94.502 99.3059 94.502 99.2911C94.502 99.2763 94.502 99.2616 94.502 99.2468C94.502 99.2321 94.502 99.2174 94.502 99.2027C94.502 99.1881 94.502 99.1734 94.502 99.1588C94.502 99.1442 94.502 99.1297 94.502 99.1152C94.502 99.1006 94.502 99.0861 94.502 99.0717C94.502 99.0572 94.502 99.0428 94.502 99.0284C94.502 99.014 94.502 98.9997 94.502 98.9853C94.502 98.971 94.502 98.9567 94.502 98.9425C94.502 98.9282 94.502 98.914 94.502 98.8998C94.502 98.8856 94.502 98.8715 94.502 98.8574C94.502 98.8433 94.502 98.8292 94.502 98.8151C94.502 98.8011 94.502 98.7871 94.502 98.7731C94.502 98.7591 94.502 98.7452 94.502 98.7313C94.502 98.7173 94.502 98.7035 94.502 98.6896C94.502 98.6758 94.502 98.662 94.502 98.6482C94.502 98.6344 94.502 98.6207 94.502 98.607C94.502 98.5932 94.502 98.5796 94.502 98.5659C94.502 98.5523 94.502 98.5387 94.502 98.5251C94.502 98.5115 94.502 98.498 94.502 98.4845C94.502 98.471 94.502 98.4575 94.502 98.444C94.502 98.4306 94.502 98.4172 94.502 98.4038C94.502 98.3904 94.502 98.3771 94.502 98.3638C94.502 98.3505 94.502 98.3372 94.502 98.3239C94.502 98.3107 94.502 98.2975 94.502 98.2843C94.502 98.2711 94.502 98.258 94.502 98.2449C94.502 98.2318 94.502 98.2187 94.502 98.2056C94.502 98.1926 94.502 98.1796 94.502 98.1666C94.502 98.1536 94.502 98.1406 94.502 98.1277C94.502 98.1148 94.502 98.1019 94.502 98.0891C94.502 98.0762 94.502 98.0634 94.502 98.0506C94.502 98.0378 94.502 98.0251 94.502 98.0123C94.502 97.9996 94.502 97.9869 94.502 97.9743C94.502 97.9616 94.502 97.949 94.502 97.9364C94.502 97.9238 94.502 97.9112 94.502 97.8987C94.502 97.8862 94.502 97.8737 94.502 97.8612C94.502 97.8487 94.502 97.8363 94.502 97.8239C94.502 97.8115 94.502 97.7991 94.502 97.7868C94.502 97.7745 94.502 97.7622 94.502 97.7499C94.502 97.7376 94.502 97.7254 94.502 97.7131C94.502 97.7009 94.502 97.6888 94.502 97.6766C94.502 97.6645 94.502 97.6523 94.502 97.6403C94.502 97.6282 94.502 97.6161 94.502 97.6041C94.502 97.5921 94.502 97.5801 94.502 97.5681C94.502 97.5562 94.502 97.5442 94.502 97.5323C94.502 97.5204 94.502 97.5086 94.502 97.4967C94.502 97.4849 94.502 97.4731 94.502 97.4613C94.502 97.4495 94.502 97.4378 94.502 97.4261C94.502 97.4144 94.502 97.4027 94.502 97.3911C94.502 97.3794 94.502 97.3678 94.502 97.3562C94.502 97.3446 94.502 97.3331 94.502 97.3215C94.502 97.31 94.502 97.2985 94.502 97.287C94.502 97.2756 94.502 97.2642 94.502 97.2527C94.502 97.2413 94.502 97.23 94.502 97.2186C94.502 97.2073 94.502 97.196 94.502 97.1847C94.502 97.1734 94.502 97.1622 94.502 97.1509C94.502 97.1397 94.502 97.1285 94.502 97.1174C94.502 97.1062 94.502 97.0951 94.502 97.084C94.502 97.0729 94.502 97.0618 94.502 97.0508C94.502 97.0397 94.502 97.0287 94.502 97.0178C94.502 97.0068 94.502 96.9958 94.502 96.9849C94.502 96.974 94.502 96.9631 94.502 96.9522C94.502 96.9414 94.502 96.9305 94.502 96.9197C94.502 96.9089 94.502 96.8982 94.502 96.8874C94.502 96.8767 94.502 96.866 94.502 96.8553C94.502 96.8446 94.502 96.834 94.502 96.8234C94.502 96.8127 94.502 96.8021 94.502 96.7916C94.502 96.781 94.502 96.7705 94.502 96.76C94.502 96.7495 94.502 96.739 94.502 96.7285C94.502 96.7181 94.502 96.7077 94.502 96.6973C94.502 96.6869 94.502 96.6766 94.502 96.6662C94.502 96.6559 94.502 96.6456 94.502 96.6353C94.502 96.6251 94.502 96.6148 94.502 96.6046C94.502 96.5944 94.502 96.5842 94.502 96.574C94.502 96.5639 94.502 96.5538 94.502 96.5437C94.502 96.5336 94.502 96.5235 94.502 96.5135C94.502 96.5034 94.502 96.4934 94.502 96.4834C94.502 96.4734 94.502 96.4635 94.502 96.4536C94.502 96.4436 94.502 96.4337 94.502 96.4239C94.502 96.414 94.502 96.4042 94.502 96.3944C94.502 96.3845 94.502 96.3748 94.502 96.365C94.502 96.3552 94.502 96.3455 94.502 96.3358C94.502 96.3261 94.502 96.3164 94.502 96.3068C94.502 96.2972 94.502 96.2875 94.502 96.278C94.502 96.2684 94.502 96.2588 94.502 96.2493C94.502 96.2398 94.502 96.2303 94.502 96.2208C94.502 96.2113 94.502 96.2019 94.502 96.1924C94.502 96.183 94.502 96.1736 94.502 96.1643C94.502 96.1549 94.502 96.1456 94.502 96.1363C94.502 96.127 94.502 96.1177 94.502 96.1084C94.502 96.0992 94.502 96.0899 94.502 96.0807C94.502 96.0715 94.502 96.0624 94.502 96.0532C94.502 96.0441 94.502 96.035 94.502 96.0259C94.502 96.0168 94.502 96.0077 94.502 95.9987C94.502 95.9897 94.502 95.9807 94.502 95.9717C94.502 95.9627 94.502 95.9537 94.502 95.9448C94.502 95.9359 94.502 95.927 94.502 95.9181C94.502 95.9093 94.502 95.9004 94.502 95.8916C94.502 95.8828 94.502 95.874 94.502 95.8652C94.502 95.8565 94.502 95.8477 94.502 95.839C94.502 95.8303 94.502 95.8216 94.502 95.813C94.502 95.8043 94.502 95.7957 94.502 95.7871C94.502 95.7785 94.502 95.7699 94.502 95.7613C94.502 95.7528 94.502 95.7443 94.502 95.7358C94.502 95.7273 94.502 95.7188 94.502 95.7103C94.502 95.7019 94.502 95.6935 94.502 95.6851C94.502 95.6767 94.502 95.6683 94.502 95.66C94.502 95.6517 94.502 95.6433 94.502 95.635C94.502 95.6268 94.502 95.6185 94.502 95.6103C94.502 95.602 94.502 95.5938 94.502 95.5856C94.502 95.5774 94.502 95.5693 94.502 95.5612C94.502 95.553 94.502 95.5449 94.502 95.5368C94.502 95.5288 94.502 95.5207 94.502 95.5127C94.502 95.5046 94.502 95.4966 94.502 95.4887C94.502 95.4807 94.502 95.4727 94.502 95.4648C94.502 95.4569 94.502 95.449 94.502 95.4411C94.502 95.4332 94.502 95.4254 94.502 95.4175C94.502 95.4097 94.502 95.4019 94.502 95.3941C94.502 95.3864 94.502 95.3786 94.502 95.3709C94.502 95.3632 94.502 95.3555 94.502 95.3478C94.502 95.3401 94.502 95.3325 94.502 95.3248C94.502 95.3172 94.502 95.3096 94.502 95.302C94.502 95.2945 94.502 95.2869 94.502 95.2794C94.502 95.2719 94.502 95.2644 94.502 95.2569C94.502 95.2494 94.502 95.242 94.502 95.2345C94.502 95.2271 94.502 95.2197 94.502 95.2123C94.502 95.205 94.502 95.1976 94.502 95.1903C94.502 95.183 94.502 95.1757 94.502 95.1684C94.502 95.1611 94.502 95.1538 94.502 95.1466C94.502 95.1394 94.502 95.1322 94.502 95.125C94.502 95.1178 94.502 95.1107 94.502 95.1035C94.502 95.0964 94.502 95.0893 94.502 95.0822C94.502 95.0751 94.502 95.0681 94.502 95.061C94.502 95.054 94.502 95.047 94.502 95.04C94.502 95.033 94.502 95.026 94.502 95.0191C94.502 95.0122 94.502 95.0052 94.502 94.9983C94.502 94.9915 94.502 94.9846 94.502 94.9777C94.502 94.9709 94.502 94.9641 94.502 94.9573C94.502 94.9505 94.502 94.9437 94.502 94.937C94.502 94.9302 94.502 94.9235 94.502 94.9168C94.502 94.9101 94.502 94.9034 94.502 94.8967C94.502 94.8901 94.502 94.8834 94.502 94.8768C94.502 94.8702 94.502 94.8636 94.502 94.8571C94.502 94.8505 94.502 94.844 94.502 94.8374C94.502 94.8309 94.502 94.8244 94.502 94.818C94.502 94.8115 94.502 94.805 94.502 94.7986C94.502 94.7922 94.502 94.7858 94.502 94.7794C94.502 94.773 94.502 94.7667 94.502 94.7603C94.502 94.754 94.502 94.7477 94.502 94.7414C94.502 94.7351 94.502 94.7288 94.502 94.7226C94.502 94.7164 94.502 94.7101 94.502 94.7039C94.502 94.6977 94.502 94.6916 94.502 94.6854C94.502 94.6793 94.502 94.6731 94.502 94.667C94.502 94.6609 94.502 94.6548 94.502 94.6488C94.502 94.6427 94.502 94.6367 94.502 94.6306C94.502 94.6246 94.502 94.6186 94.502 94.6126C94.502 94.6067 94.502 94.6007 94.502 94.5948C94.502 94.5889 94.502 94.5829 94.502 94.5771C94.502 94.5712 94.502 94.5653 94.502 94.5595C94.502 94.5536 94.502 94.5478 94.502 94.542C94.502 94.5362 94.502 94.5304 94.502 94.5247C94.502 94.5189 94.502 94.5132 94.502 94.5075C94.502 94.5018 94.502 94.4961 94.502 94.4904C94.502 94.4847 94.502 94.4791 94.502 94.4735C94.502 94.4678 94.502 94.4622 94.502 94.4566C94.502 94.4511 94.502 94.4455 94.502 94.44C94.502 94.4344 94.502 94.4289 94.502 94.4234C94.502 94.4179 94.502 94.4124 94.502 94.407C94.502 94.4015 94.502 94.3961 94.502 94.3907C94.502 94.3852 94.502 94.3799 94.502 94.3745C94.502 94.3691 94.502 94.3638 94.502 94.3584C94.502 94.3531 94.502 94.3478 94.502 94.3425C94.502 94.3372 94.502 94.332 94.502 94.3267C94.502 94.3215 94.502 94.3162 94.502 94.311C94.502 94.3058 94.502 94.3006 94.502 94.2955C94.502 94.2903 94.502 94.2852 94.502 94.2801C94.502 94.2749 94.502 94.2698 94.502 94.2647C94.502 94.2597 94.502 94.2546 94.502 94.2496C94.502 94.2445 94.502 94.2395 94.502 94.2345C94.502 94.2295 94.502 94.2245 94.502 94.2196C94.502 94.2146 94.502 94.2097 94.502 94.2047C94.502 94.1998 94.502 94.1949 94.502 94.19C94.502 94.1852 94.502 94.1803 94.502 94.1755C94.502 94.1706 94.502 94.1658 94.502 94.161C94.502 94.1562 94.502 94.1514 94.502 94.1467C94.502 94.1419 94.502 94.1372 94.502 94.1324C94.502 94.1277 94.502 94.123 94.502 94.1183C94.502 94.1137 94.502 94.109 94.502 94.1044C94.502 94.0997 94.502 94.0951 94.502 94.0905C94.502 94.0859 94.502 94.0813 94.502 94.0767C94.502 94.0722 94.502 94.0676 94.502 94.0631C94.502 94.0586 94.502 94.0541 94.502 94.0496C94.502 94.0451 94.502 94.0406 94.502 94.0362C94.502 94.0317 94.502 94.0273 94.502 94.0229C94.502 94.0185 94.502 94.0141 94.502 94.0097C94.502 94.0053 94.502 94.001 94.502 93.9966C94.502 93.9923 94.502 93.988 94.502 93.9837C94.502 93.9794 94.502 93.9751 94.502 93.9708C94.502 93.9666 94.502 93.9623 94.502 93.9581C94.502 93.9539 94.502 93.9497 94.502 93.9455C94.502 93.9413 94.502 93.9372 94.502 93.933C94.502 93.9289 94.502 93.9247 94.502 93.9206C94.502 93.9165 94.502 93.9124 94.502 93.9083C94.502 93.9043 94.502 93.9002 94.502 93.8962C94.502 93.8921 94.502 93.8881 94.502 93.8841C94.502 93.8801 94.502 93.8761 94.502 93.8721C94.502 93.8682 94.502 93.8642 94.502 93.8603C94.502 93.8564 94.502 93.8524 94.502 93.8485C94.502 93.8447 94.502 93.8408 94.502 93.8369C94.502 93.8331 94.502 93.8292 94.502 93.8254C94.502 93.8216 94.502 93.8178 94.502 93.814C94.502 93.8102 94.502 93.8064 94.502 93.8027C94.502 93.7989 94.502 93.7952 94.502 93.7915C94.502 93.7877 94.502 93.784 94.502 93.7804C94.502 93.7767 94.502 93.773 94.502 93.7694C94.502 93.7657 94.502 93.7621 94.502 93.7585C94.502 93.7548 94.502 93.7512 94.502 93.7477C94.502 93.7441 94.502 93.7405 94.502 93.737C94.502 93.7334 94.502 93.7299 94.502 93.7264C94.502 93.7229 94.502 93.7194 94.502 93.7159C94.502 93.7124 94.502 93.709 94.502 93.7055C94.502 93.7021 94.502 93.6986 94.502 93.6952C94.502 93.6918 94.502 93.6884 94.502 93.6851C94.502 93.6817 94.502 93.6783 94.502 93.675C94.502 93.6716 94.502 93.6683 94.502 93.665C94.502 93.6617 94.502 93.6584 94.502 93.6551C94.502 93.6518 94.502 93.6486 94.502 93.6453C94.502 93.6421 94.502 93.6388 94.502 93.6356C94.502 93.6324 94.502 93.6292 94.502 93.626C94.502 93.6229 94.502 93.6197 94.502 93.6165C94.502 93.6134 94.502 93.6103 94.502 93.6071C94.502 93.604 94.502 93.6009 94.502 93.5978C94.502 93.5948 94.502 93.5917 94.502 93.5886C94.502 93.5856 94.502 93.5826 94.502 93.5795C94.502 93.5765 94.502 93.5735 94.502 93.5705C94.502 93.5675 94.502 93.5645 94.502 93.5616C94.502 93.5586 94.502 93.5557 94.502 93.5528C94.502 93.5498 94.502 93.5469 94.502 93.544C94.502 93.5411 94.502 93.5382 94.502 93.5354C94.502 93.5325 94.502 93.5297 94.502 93.5268C94.502 93.524 94.502 93.5212 94.502 93.5184C94.502 93.5156 94.502 93.5128 94.502 93.51C94.502 93.5072 94.502 93.5045 94.502 93.5017C94.502 93.499 94.502 93.4962 94.502 93.4935C94.502 93.4908 94.502 93.4881 94.502 93.4854C94.502 93.4827 94.502 93.4801 94.502 93.4774C94.502 93.4748 94.502 93.4721 94.502 93.4695C94.502 93.4669 94.502 93.4643 94.502 93.4617C94.502 93.4591 94.502 93.4565 94.502 93.4539C94.502 93.4513 94.502 93.4488 94.502 93.4463C94.502 93.4437 94.502 93.4412 94.502 93.4387C94.502 93.4362 94.502 93.4337 94.502 93.4312C94.502 93.4287 94.502 93.4262 94.502 93.4238C94.502 93.4213 94.502 93.4189 94.502 93.4165C94.502 93.414 94.502 93.4116 94.502 93.4092C94.502 93.4068 94.502 93.4045 94.502 93.4021C94.502 93.3997 94.502 93.3974 94.502 93.395C94.502 93.3927 94.502 93.3904 94.502 93.388C94.502 93.3857 94.502 93.3834 94.502 93.3812C94.502 93.3789 94.502 93.3766 94.502 93.3743C94.502 93.3721 94.502 93.3698 94.502 93.3676C94.502 93.3654 94.502 93.3632 94.502 93.3609C94.502 93.3587 94.502 93.3566 94.502 93.3544C94.502 93.3522 94.502 93.35 94.502 93.3479C94.502 93.3457 94.502 93.3436 94.502 93.3415C94.502 93.3393 94.502 93.3372 94.502 93.3351C94.502 93.333 94.502 93.3309 94.502 93.3289C94.502 93.3268 94.502 93.3247 94.502 93.3227C94.502 93.3207 94.502 93.3186 94.502 93.3166C94.502 93.3146 94.502 93.3126 94.502 93.3106C94.502 93.3086 94.502 93.3066 94.502 93.3046C94.502 93.3027 94.502 93.3007 94.502 93.2988C94.502 93.2968 94.502 93.2949 94.502 93.293C94.502 93.2911 94.502 93.2891 94.502 93.2873C94.502 93.2854 94.502 93.2835 94.502 93.2816C94.502 93.2797 94.502 93.2779 94.502 93.276C94.502 93.2742 94.502 93.2724 94.502 93.2705C94.502 93.2687 94.502 93.2669 94.502 93.2651C94.502 93.2633 94.502 93.2615 94.502 93.2598C94.502 93.258 94.502 93.2562 94.502 93.2545C94.502 93.2527 94.502 93.251 94.502 93.2493C94.502 93.2476 94.502 93.2459 94.502 93.2442C94.502 93.2425 94.502 93.2408 94.502 93.2391C94.502 93.2374 94.502 93.2358 94.502 93.2341C94.502 93.2324 94.502 93.2308 94.502 93.2292C94.502 93.2275 94.502 93.2259 94.502 93.2243C94.502 93.2227 94.502 93.2211 94.502 93.2195C94.502 93.218 94.502 93.2164 94.502 93.2148C94.502 93.2133 94.502 93.2117 94.502 93.2102C94.502 93.2086 94.502 93.2071 94.502 93.2056C94.502 93.2041 94.502 93.2026 94.502 93.2011C94.502 93.1996 94.502 93.1981 94.502 93.1966C94.502 93.1952 94.502 93.1937 94.502 93.1922C94.502 93.1908 94.502 93.1894 94.502 93.1879C94.502 93.1865 94.502 93.1851 94.502 93.1837C94.502 93.1823 94.502 93.1809 94.502 93.1795C94.502 93.1781 94.502 93.1767 94.502 93.1754C94.502 93.174 94.502 93.1727 94.502 93.1713C94.502 93.17 94.502 93.1686 94.502 93.1673C94.502 93.166 94.502 93.1647 94.502 93.1634C94.502 93.1621 94.502 93.1608 94.502 93.1595C94.502 93.1582 94.502 93.157 94.502 93.1557C94.502 93.1544 94.502 93.1532 94.502 93.1519C94.502 93.1507 94.502 93.1495 94.502 93.1483C94.502 93.147 94.502 93.1458 94.502 93.1446C94.502 93.1434 94.502 93.1422 94.502 93.1411C94.502 93.1399 94.502 93.1387 94.502 93.1375C94.502 93.1364 94.502 93.1352 94.502 93.1341C94.502 93.1329 94.502 93.1318 94.502 93.1307C94.502 93.1296 94.502 93.1285 94.502 93.1274C94.502 93.1263 94.502 93.1252 94.502 93.1241C94.502 93.123 94.502 93.1219 94.502 93.1209C94.502 93.1198 94.502 93.1187 94.502 93.1177C94.502 93.1166 94.502 93.1156 94.502 93.1146C94.502 93.1135 94.502 93.1125 94.502 93.1115C94.502 93.1105 94.502 93.1095 94.502 93.1085C94.502 93.1075 94.502 93.1065 94.502 93.1056C94.502 93.1046 94.502 93.1036 94.502 93.1027C94.502 93.1017 94.502 93.1008 94.502 93.0998C94.502 93.0989 94.502 93.098 94.502 93.097C94.502 93.0961 94.502 93.0952 94.502 93.0943C94.502 93.0934 94.502 93.0925 94.502 93.0916C94.502 93.0907 94.502 93.0899 94.502 93.089C94.502 93.0881 94.502 93.0873 94.502 93.0864C94.502 93.0855 94.502 93.0847 94.502 93.0839C94.502 93.083 94.502 93.0822 94.502 93.0814C94.502 93.0806 94.502 93.0798 94.502 93.079C94.502 93.0781 94.502 93.0774 94.502 93.0766C94.502 93.0758 94.502 93.075 94.502 93.0742C94.502 93.0735 94.502 93.0727 94.502 93.0719C94.502 93.0712 94.502 93.0704 94.502 93.0697C94.502 93.069 94.502 93.0682 94.502 93.0675C94.502 93.0668 94.502 93.0661 94.502 93.0653C94.502 93.0646 94.502 93.0639 94.502 93.0632C94.502 93.0626 94.502 93.0619 94.502 93.0612C94.502 93.0605 94.502 93.0598 94.502 93.0592C94.502 93.0585 94.502 93.0579 94.502 93.0572C94.502 93.0566 94.502 93.0559 94.502 93.0553C94.502 93.0546 94.502 93.054 94.502 93.0534C94.502 93.0528 94.502 93.0522 94.502 93.0516C94.502 93.051 94.502 93.0504 94.502 93.0498C94.502 93.0492 94.502 93.0486 94.502 93.048C94.502 93.0474 94.502 93.0469 94.502 93.0463C94.502 93.0457 94.502 93.0452 94.502 93.0446C94.502 93.0441 94.502 93.0435 94.502 93.043C94.502 93.0424 94.502 93.0419 94.502 93.0414C94.502 93.0409 94.502 93.0403 94.502 93.0398C94.502 93.0393 94.502 93.0388 94.502 93.0383C94.502 93.0378 94.502 93.0373 94.502 93.0368C94.502 93.0364 94.502 93.0359 94.502 93.0354C94.502 93.0349 94.502 93.0345 94.502 93.034C94.502 93.0335 94.502 93.0331 94.502 93.0326C94.502 93.0322 94.502 93.0317 94.502 93.0313C94.502 93.0309 94.502 93.0304 94.502 93.03C94.502 93.0296 94.502 93.0292 94.502 93.0288C94.502 93.0283 94.502 93.0279 94.502 93.0275C94.502 93.0271 94.502 93.0267 94.502 93.0263C94.502 93.026 94.502 93.0256 94.502 93.0252C94.502 93.0248 94.502 93.0244 94.502 93.0241C94.502 93.0237 94.502 93.0233 94.502 93.023C94.502 93.0226 94.502 93.0223 94.502 93.0219C94.502 93.0216 94.502 93.0212 94.502 93.0209C94.502 93.0206 94.502 93.0202 94.502 93.0199C94.502 93.0196 94.502 93.0193 94.502 93.019C94.502 93.0186 94.502 93.0183 94.502 93.018C94.502 93.0177 94.502 93.0174 94.502 93.0171C94.502 93.0168 94.502 93.0165 94.502 93.0163C94.502 93.016 94.502 93.0157 94.502 93.0154C94.502 93.0151 94.502 93.0149 94.502 93.0146C94.502 93.0143 94.502 93.0141 94.502 93.0138C94.502 93.0136 94.502 93.0133 94.502 93.0131C94.502 93.0128 94.502 93.0126 94.502 93.0123C94.502 93.0121 94.502 93.0119 94.502 93.0116C94.502 93.0114 94.502 93.0112 94.502 93.0109C94.502 93.0107 94.502 93.0105 94.502 93.0103C94.502 93.0101 94.502 93.0099 94.502 93.0097C94.502 93.0095 94.502 93.0093 94.502 93.0091C94.502 93.0089 94.502 93.0087 94.502 93.0085C94.502 93.0083 94.502 93.0081 94.502 93.0079C94.502 93.0078 94.502 93.0076 94.502 93.0074C94.502 93.0072 94.502 93.0071 94.502 93.0069C94.502 93.0067 94.502 93.0066 94.502 93.0064C94.502 93.0062 94.502 93.0061 94.502 93.0059C94.502 93.0058 94.502 93.0056 94.502 93.0055C94.502 93.0054 94.502 93.0052 94.502 93.0051C94.502 93.0049 94.502 93.0048 94.502 93.0047C94.502 93.0045 94.502 93.0044 94.502 93.0043C94.502 93.0042 94.502 93.004 94.502 93.0039C94.502 93.0038 94.502 93.0037 94.502 93.0036C94.502 93.0035 94.502 93.0034 94.502 93.0032C94.502 93.0031 94.502 93.003 94.502 93.0029C94.502 93.0028 94.502 93.0027 94.502 93.0026C94.502 93.0026 94.502 93.0025 94.502 93.0024C94.502 93.0023 94.502 93.0022 94.502 93.0021C94.502 93.002 94.502 93.0019 94.502 93.0019C94.502 93.0018 94.502 93.0017 94.502 93.0016C94.502 93.0016 94.502 93.0015 94.502 93.0014C94.502 93.0014 94.502 93.0013 94.502 93.0012C94.502 93.0012 94.502 93.0011 94.502 93.001C94.502 93.001 94.502 93.0009 94.502 93.0009C94.502 93.0008 94.502 93.0008 94.502 93.0007C94.502 93.0007 94.502 93.0006 94.502 93.0006C94.502 93.0005 94.502 93.0005 94.502 93.0004C94.502 93.0004 94.502 93.0003 94.502 93.0003C94.502 93.0003 94.502 93.0002 94.502 93.0002C94.502 93.0001 94.502 93.0001 94.502 93.0001C94.502 93 94.502 93 94.502 93C94.502 93 94.502 92.9999 94.502 92.9999C94.502 92.9999 94.502 92.9999 94.502 92.9998C94.502 92.9998 94.502 92.9998 94.502 92.9998C94.502 92.9997 94.502 92.9997 94.502 92.9997C94.502 92.9997 94.502 92.9997 94.502 92.9997C94.502 92.9996 94.502 92.9996 94.502 92.9996C94.502 92.9996 94.502 92.9996 94.502 92.9996C94.502 92.9996 94.502 92.9995 94.502 92.9995C94.502 92.9995 94.502 92.9995 94.502 92.9995C94.502 92.9995 94.502 92.9995 94.502 92.9995C94.502 92.9995 94.502 92.9995 94.502 92.9995C94.502 92.9995 94.502 92.9995 94.502 92.9995C94.502 92.9994 94.502 92.9994 94.502 92.9994C94.502 92.9994 94.502 92.9994 94.502 92.9994C94.502 92.9994 94.502 92.9994 94.502 92.9994C94.502 92.9994 94.502 92.9994 94.502 92.9994V92.9994C94.502 92.9994 94.502 92.9994 94.502 92.9994H93.002ZM94.502 93.0005V82H91.502V93.0005H94.502Z" fill="white"/>
<defs>
<radialGradient id="paint0_radial_417_1100" cx="0" cy="0" r="1" gradientUnits="userSpaceOnUse" gradientTransform="translate(93 93) rotate(89.6102) scale(90.0021)">
<stop offset="0.854167" stop-color="#F8F8F8"/>
<stop offset="1" stop-color="#F8F8F8" stop-opacity="0"/>
</radialGradient>
</defs>
</svg>
