<svg width="248" height="119" viewBox="0 0 248 119" fill="none" xmlns="http://www.w3.org/2000/svg">
<path d="M245 65.0991V116H154.598M3 53.9009V3H93.4023M50.2874 116H71.1494M197.713 3H176.851" stroke="black" stroke-width="5"/>
<rect x="28" y="24" width="205" height="78" fill="#0064DA"/>
<rect x="13.5" y="13.5" width="198" height="77" fill="white" stroke="black"/>
<path d="M66.15 70L53.45 54.45V70H46.45V35.1H53.45V50.75L66.15 35.1H74.6L60.2 52.4L75 70H66.15ZM91.9043 70.45C89.2376 70.45 86.8376 69.8667 84.7043 68.7C82.571 67.5 80.8876 65.8167 79.6543 63.65C78.4543 61.4833 77.8543 58.9833 77.8543 56.15C77.8543 53.3167 78.471 50.8167 79.7043 48.65C80.971 46.4833 82.6876 44.8167 84.8543 43.65C87.021 42.45 89.4376 41.85 92.1043 41.85C94.771 41.85 97.1876 42.45 99.3543 43.65C101.521 44.8167 103.221 46.4833 104.454 48.65C105.721 50.8167 106.354 53.3167 106.354 56.15C106.354 58.9833 105.704 61.4833 104.404 63.65C103.138 65.8167 101.404 67.5 99.2043 68.7C97.0376 69.8667 94.6043 70.45 91.9043 70.45ZM91.9043 64.35C93.171 64.35 94.3543 64.05 95.4543 63.45C96.5876 62.8167 97.4876 61.8833 98.1543 60.65C98.821 59.4167 99.1543 57.9167 99.1543 56.15C99.1543 53.5167 98.4543 51.5 97.0543 50.1C95.6876 48.6667 94.0043 47.95 92.0043 47.95C90.0043 47.95 88.321 48.6667 86.9543 50.1C85.621 51.5 84.9543 53.5167 84.9543 56.15C84.9543 58.7833 85.6043 60.8167 86.9043 62.25C88.2376 63.65 89.9043 64.35 91.9043 64.35ZM101.954 33.05V38.05H82.8543V33.05H101.954ZM118.489 46.3C119.389 45.0333 120.622 43.9833 122.189 43.15C123.789 42.2833 125.606 41.85 127.639 41.85C130.006 41.85 132.139 42.4333 134.039 43.6C135.972 44.7667 137.489 46.4333 138.589 48.6C139.722 50.7333 140.289 53.2167 140.289 56.05C140.289 58.8833 139.722 61.4 138.589 63.6C137.489 65.7667 135.972 67.45 134.039 68.65C132.139 69.85 130.006 70.45 127.639 70.45C125.606 70.45 123.806 70.0333 122.239 69.2C120.706 68.3667 119.456 67.3167 118.489 66.05V83.2H111.489V42.3H118.489V46.3ZM133.139 56.05C133.139 54.3833 132.789 52.95 132.089 51.75C131.422 50.5167 130.522 49.5833 129.389 48.95C128.289 48.3167 127.089 48 125.789 48C124.522 48 123.322 48.3333 122.189 49C121.089 49.6333 120.189 50.5667 119.489 51.8C118.822 53.0333 118.489 54.4833 118.489 56.15C118.489 57.8167 118.822 59.2667 119.489 60.5C120.189 61.7333 121.089 62.6833 122.189 63.35C123.322 63.9833 124.522 64.3 125.789 64.3C127.089 64.3 128.289 63.9667 129.389 63.3C130.522 62.6333 131.422 61.6833 132.089 60.45C132.789 59.2167 133.139 57.75 133.139 56.05ZM148.926 39C147.692 39 146.659 38.6167 145.826 37.85C145.026 37.05 144.626 36.0667 144.626 34.9C144.626 33.7333 145.026 32.7667 145.826 32C146.659 31.2 147.692 30.8 148.926 30.8C150.159 30.8 151.176 31.2 151.976 32C152.809 32.7667 153.226 33.7333 153.226 34.9C153.226 36.0667 152.809 37.05 151.976 37.85C151.176 38.6167 150.159 39 148.926 39ZM152.376 42.3V70H145.376V42.3H152.376ZM166.292 33V70H159.292V33H166.292ZM176.758 39C175.524 39 174.491 38.6167 173.658 37.85C172.858 37.05 172.458 36.0667 172.458 34.9C172.458 33.7333 172.858 32.7667 173.658 32C174.491 31.2 175.524 30.8 176.758 30.8C177.991 30.8 179.008 31.2 179.808 32C180.641 32.7667 181.058 33.7333 181.058 34.9C181.058 36.0667 180.641 37.05 179.808 37.85C179.008 38.6167 177.991 39 176.758 39ZM180.208 42.3V70H173.208V42.3H180.208Z" fill="#181820"/>
</svg>
