<svg width="385" height="115" viewBox="0 0 385 115" fill="none" xmlns="http://www.w3.org/2000/svg">
<path d="M382.32 62.9004V111.999H240.62M3 52.0986V2.99945H144.7M77.12 111.999H109.82M308.2 2.99945H275.5" stroke="black" stroke-width="5"/>
<rect x="36" y="23.9995" width="335" height="78" fill="#9D0000"/>
<rect x="12.5" y="13.4995" width="334" height="77" fill="white" stroke="black"/>
<path d="M71.3 69.9995H64.3L48.45 46.0494V69.9995H41.45V35.0494H48.45L64.3 59.0495V35.0494H71.3V69.9995ZM90.5176 70.4495C87.8509 70.4495 85.4509 69.8661 83.3176 68.6995C81.1842 67.4995 79.5009 65.8161 78.2676 63.6495C77.0676 61.4828 76.4676 58.9828 76.4676 56.1495C76.4676 53.3161 77.0842 50.8161 78.3176 48.6494C79.5842 46.4828 81.3009 44.8161 83.4676 43.6495C85.6342 42.4494 88.0509 41.8494 90.7176 41.8494C93.3842 41.8494 95.8009 42.4494 97.9676 43.6495C100.134 44.8161 101.834 46.4828 103.068 48.6494C104.334 50.8161 104.968 53.3161 104.968 56.1495C104.968 58.9828 104.318 61.4828 103.018 63.6495C101.751 65.8161 100.018 67.4995 97.8176 68.6995C95.6509 69.8661 93.2176 70.4495 90.5176 70.4495ZM90.5176 64.3495C91.7842 64.3495 92.9676 64.0495 94.0676 63.4495C95.2009 62.8161 96.1009 61.8828 96.7676 60.6495C97.4342 59.4161 97.7676 57.9161 97.7676 56.1495C97.7676 53.5161 97.0676 51.4994 95.6676 50.0994C94.3009 48.6661 92.6176 47.9494 90.6176 47.9494C88.6176 47.9494 86.9342 48.6661 85.5676 50.0994C84.2342 51.4994 83.5676 53.5161 83.5676 56.1495C83.5676 58.7828 84.2176 60.8161 85.5176 62.2495C86.8509 63.6495 88.5176 64.3495 90.5176 64.3495ZM120.702 70.4495C118.436 70.4495 116.402 70.0495 114.602 69.2495C112.802 68.4161 111.369 67.2995 110.302 65.8995C109.269 64.4995 108.702 62.9495 108.602 61.2495H115.652C115.786 62.3161 116.302 63.1995 117.202 63.8995C118.136 64.5995 119.286 64.9495 120.652 64.9495C121.986 64.9495 123.019 64.6828 123.752 64.1495C124.519 63.6161 124.902 62.9328 124.902 62.0995C124.902 61.1995 124.436 60.5328 123.502 60.0994C122.602 59.6328 121.152 59.1328 119.152 58.5994C117.086 58.0994 115.386 57.5828 114.052 57.0495C112.752 56.5161 111.619 55.6995 110.652 54.5994C109.719 53.4994 109.252 52.0161 109.252 50.1494C109.252 48.6161 109.686 47.2161 110.552 45.9494C111.452 44.6828 112.719 43.6828 114.352 42.9495C116.019 42.2161 117.969 41.8494 120.202 41.8494C123.502 41.8494 126.136 42.6828 128.102 44.3495C130.069 45.9828 131.152 48.1994 131.352 50.9994H124.652C124.552 49.8994 124.086 49.0328 123.252 48.3995C122.452 47.7328 121.369 47.3994 120.002 47.3994C118.736 47.3994 117.752 47.6328 117.052 48.0994C116.386 48.5661 116.052 49.2161 116.052 50.0494C116.052 50.9828 116.519 51.6994 117.452 52.1995C118.386 52.6661 119.836 53.1495 121.802 53.6494C123.802 54.1495 125.452 54.6661 126.752 55.1995C128.052 55.7328 129.169 56.5661 130.102 57.6995C131.069 58.7995 131.569 60.2661 131.602 62.0995C131.602 63.6995 131.152 65.1328 130.252 66.3995C129.386 67.6661 128.119 68.6661 126.452 69.3995C124.819 70.0995 122.902 70.4495 120.702 70.4495ZM147.948 70.4495C145.682 70.4495 143.648 70.0495 141.848 69.2495C140.048 68.4161 138.615 67.2995 137.548 65.8995C136.515 64.4995 135.948 62.9495 135.848 61.2495H142.898C143.032 62.3161 143.548 63.1995 144.448 63.8995C145.382 64.5995 146.532 64.9495 147.898 64.9495C149.232 64.9495 150.265 64.6828 150.998 64.1495C151.765 63.6161 152.148 62.9328 152.148 62.0995C152.148 61.1995 151.682 60.5328 150.748 60.0994C149.848 59.6328 148.398 59.1328 146.398 58.5994C144.332 58.0994 142.632 57.5828 141.298 57.0495C139.998 56.5161 138.865 55.6995 137.898 54.5994C136.965 53.4994 136.498 52.0161 136.498 50.1494C136.498 48.6161 136.932 47.2161 137.798 45.9494C138.698 44.6828 139.965 43.6828 141.598 42.9495C143.265 42.2161 145.215 41.8494 147.448 41.8494C150.748 41.8494 153.382 42.6828 155.348 44.3495C157.315 45.9828 158.398 48.1994 158.598 50.9994H151.898C151.798 49.8994 151.332 49.0328 150.498 48.3995C149.698 47.7328 148.615 47.3994 147.248 47.3994C145.982 47.3994 144.998 47.6328 144.298 48.0994C143.632 48.5661 143.298 49.2161 143.298 50.0494C143.298 50.9828 143.765 51.6994 144.698 52.1995C145.632 52.6661 147.082 53.1495 149.048 53.6494C151.048 54.1495 152.698 54.6661 153.998 55.1995C155.298 55.7328 156.415 56.5661 157.348 57.6995C158.315 58.7995 158.815 60.2661 158.848 62.0995C158.848 63.6995 158.398 65.1328 157.498 66.3995C156.632 67.6661 155.365 68.6661 153.698 69.3995C152.065 70.0995 150.148 70.4495 147.948 70.4495ZM176.895 70.4495C174.228 70.4495 171.828 69.8661 169.695 68.6995C167.561 67.4995 165.878 65.8161 164.645 63.6495C163.445 61.4828 162.845 58.9828 162.845 56.1495C162.845 53.3161 163.461 50.8161 164.695 48.6494C165.961 46.4828 167.678 44.8161 169.845 43.6495C172.011 42.4494 174.428 41.8494 177.095 41.8494C179.761 41.8494 182.178 42.4494 184.345 43.6495C186.511 44.8161 188.211 46.4828 189.445 48.6494C190.711 50.8161 191.345 53.3161 191.345 56.1495C191.345 58.9828 190.695 61.4828 189.395 63.6495C188.128 65.8161 186.395 67.4995 184.195 68.6995C182.028 69.8661 179.595 70.4495 176.895 70.4495ZM176.895 64.3495C178.161 64.3495 179.345 64.0495 180.445 63.4495C181.578 62.8161 182.478 61.8828 183.145 60.6495C183.811 59.4161 184.145 57.9161 184.145 56.1495C184.145 53.5161 183.445 51.4994 182.045 50.0994C180.678 48.6661 178.995 47.9494 176.995 47.9494C174.995 47.9494 173.311 48.6661 171.945 50.0994C170.611 51.4994 169.945 53.5161 169.945 56.1495C169.945 58.7828 170.595 60.8161 171.895 62.2495C173.228 63.6495 174.895 64.3495 176.895 64.3495ZM216.543 48.0495V61.4495C216.543 62.3828 216.76 63.0661 217.193 63.4995C217.66 63.8995 218.427 64.0995 219.493 64.0995H222.743V69.9995H218.343C212.443 69.9995 209.493 67.1328 209.493 61.3995V48.0495H206.193V42.2994H209.493V35.4494H216.543V42.2994H222.743V48.0495H216.543ZM231.328 38.9995C230.095 38.9995 229.061 38.6161 228.228 37.8495C227.428 37.0494 227.028 36.0661 227.028 34.8994C227.028 33.7328 227.428 32.7661 228.228 31.9994C229.061 31.1994 230.095 30.7994 231.328 30.7994C232.561 30.7994 233.578 31.1994 234.378 31.9994C235.211 32.7661 235.628 33.7328 235.628 34.8994C235.628 36.0661 235.211 37.0494 234.378 37.8495C233.578 38.6161 232.561 38.9995 231.328 38.9995ZM234.778 42.2994V69.9995H227.778V42.2994H234.778ZM276.094 41.8994C279.494 41.8994 282.227 42.9494 284.294 45.0495C286.394 47.1161 287.444 50.0161 287.444 53.7494V69.9995H280.444V54.6994C280.444 52.5328 279.894 50.8828 278.794 49.7494C277.694 48.5828 276.194 47.9994 274.294 47.9994C272.394 47.9994 270.877 48.5828 269.744 49.7494C268.644 50.8828 268.094 52.5328 268.094 54.6994V69.9995H261.094V54.6994C261.094 52.5328 260.544 50.8828 259.444 49.7494C258.344 48.5828 256.844 47.9994 254.944 47.9994C253.011 47.9994 251.477 48.5828 250.344 49.7494C249.244 50.8828 248.694 52.5328 248.694 54.6994V69.9995H241.694V42.2994H248.694V45.6494C249.594 44.4828 250.744 43.5661 252.144 42.8994C253.577 42.2328 255.144 41.8994 256.844 41.8994C259.011 41.8994 260.944 42.3661 262.644 43.2994C264.344 44.1994 265.661 45.4994 266.594 47.1994C267.494 45.5994 268.794 44.3161 270.494 43.3494C272.227 42.3828 274.094 41.8994 276.094 41.8994ZM319.837 55.5495C319.837 56.5495 319.77 57.4495 319.637 58.2494H299.387C299.553 60.2495 300.253 61.8161 301.487 62.9495C302.72 64.0828 304.237 64.6495 306.037 64.6495C308.637 64.6495 310.487 63.5328 311.587 61.2995H319.137C318.337 63.9661 316.803 66.1661 314.537 67.8995C312.27 69.5995 309.487 70.4495 306.187 70.4495C303.52 70.4495 301.12 69.8661 298.987 68.6995C296.887 67.4995 295.237 65.8161 294.037 63.6495C292.87 61.4828 292.287 58.9828 292.287 56.1495C292.287 53.2828 292.87 50.7661 294.037 48.5994C295.203 46.4328 296.837 44.7661 298.937 43.5995C301.037 42.4328 303.453 41.8494 306.187 41.8494C308.82 41.8494 311.17 42.4161 313.237 43.5494C315.337 44.6828 316.953 46.2994 318.087 48.3995C319.253 50.4661 319.837 52.8495 319.837 55.5495ZM312.587 53.5494C312.553 51.7494 311.903 50.3161 310.637 49.2494C309.37 48.1494 307.82 47.5994 305.987 47.5994C304.253 47.5994 302.787 48.1328 301.587 49.1995C300.42 50.2328 299.703 51.6828 299.437 53.5494H312.587Z" fill="#181820"/>
</svg>
